<svg width="600" height="80" viewBox="0 0 600 80" fill="none" xmlns="http://www.w3.org/2000/svg">
<path d="M345.722 61.8615C347.911 61.0039 349.619 60.1835 350.757 59.4377C351.895 58.6919 353.428 57.1257 355.004 54.8882C357.455 51.4202 357.368 48.5862 356.405 44.708C351.37 39.6365 343.402 35.721 339.33 30.0901C336.747 26.5475 336.835 21.8862 335.609 17.9335C334.777 15.2113 333.989 13.3094 333.288 11.8551C332.544 10.3635 331.975 9.24479 331.318 8.72273C330.662 8.16337 329.655 7.52944 328.254 6.74634C335.653 7.04466 343.052 7.34298 350.494 7.56673C357.674 7.86505 364.548 10.1771 370.502 13.3467C377.857 17.2622 380.221 24.5339 383.986 29.4189C388.627 35.3854 411.962 43.7011 398.522 53.2848C391.035 58.6173 380.878 61.9361 371.027 61.8988C362.665 61.8615 354.259 61.787 345.897 61.7497C345.81 61.7497 345.81 61.787 345.722 61.8615ZM376.412 59.4377C378.995 59.4377 381.578 58.9156 384.03 57.8715C386.482 56.8273 388.846 55.2239 390.597 53.061C392.349 50.8982 394.056 48.3997 392.874 45.9013C391.035 41.9858 385.475 39.189 381.622 36.7651C374.486 32.253 371.509 29.6799 368.006 23.0422C366.605 20.3946 364.986 17.9707 362.709 15.7706C359.601 12.7128 355.485 9.6177 350.494 9.43125C348.437 9.35666 347.079 9.91602 346.466 10.9229C345.897 11.9297 345.897 13.7569 346.729 16.4045C348.174 20.8048 348.568 25.8017 351.238 29.6799C355.967 36.5041 365.817 39.9721 371.027 46.7962C371.334 50.5626 368.576 60.0343 376.412 59.475C376.5 59.475 376.456 59.475 376.412 59.4377Z" fill="#282828"/>
<path d="M431.663 63.204C425.972 63.3532 421.725 60.2954 420.018 55.8951C416.866 47.8031 413.407 43.7384 404.826 38.6296C398.171 34.6768 388.408 30.0901 393.837 22.7439C396.464 19.2013 402.112 18.4928 406.665 18.6793C410.649 18.8284 415.771 20.1709 419.098 21.9235C422.995 24.0118 425.184 28.2629 427.373 31.2834C429.168 33.7073 432.276 35.3108 433.152 36.243C426.629 35.7583 420.149 35.3854 413.582 35.1616C412.094 35.1243 411.349 35.2735 411.437 35.6464C411.481 35.982 412.4 36.6532 414.239 37.6601C420.324 40.9789 427.417 44.1113 431.795 49.1828C434.903 52.7627 439.456 54.9628 444.754 54.9628C448.081 54.9628 450.927 54.1424 452.634 52.3898C451.233 55.4103 447.337 58.2444 444.36 59.8852C441.033 61.6751 435.91 63.2786 431.751 63.1667C431.707 63.1667 431.663 63.1667 431.663 63.204ZM410.605 33.409C417.566 35.0497 413.801 27.0696 413.232 24.9813C412.312 21.5506 409.467 20.0963 406.008 19.9098C403.644 19.798 401.761 20.2455 400.36 21.476C399.003 22.7439 397.427 25.0932 400.492 28.9714C401.717 30.5376 403.644 31.6563 405.089 32.253C406.577 32.8869 408.328 33.1852 410.299 33.2598C410.474 33.3344 410.517 33.3717 410.605 33.409Z" fill="#282828"/>
<path d="M470.322 63.6142C466.163 63.7633 460.778 62.5327 457.494 60.3326C460.165 55.3357 462.047 48.3624 456.969 44.0367C461.61 47.6166 463.842 51.3083 466.382 56.0815C468.352 59.8105 470.541 61.7123 473.606 61.7496C474.788 61.7496 475.97 61.4513 477.064 60.8174C478.159 60.1834 479.166 59.0647 479.385 57.8341C480.173 53.9932 476.801 50.7117 473.912 47.5793C469.446 44.1113 463.536 42.5078 458.02 40.7179C457.582 40.5687 456.531 40.2704 454.78 39.711C453.029 39.1517 451.934 38.816 451.496 38.6669C451.058 38.5177 450.095 38.2194 448.607 37.6973C447.118 37.1753 446.111 36.8024 445.63 36.6159C445.148 36.4295 444.272 36.0938 443.047 35.5718C441.821 35.0497 440.989 34.6768 440.464 34.4158C439.938 34.1547 439.281 33.8191 438.45 33.2971C437.618 32.775 437.049 32.3648 436.742 32.0292C436.392 31.6936 436.042 31.2461 435.735 30.7613C435.429 30.2765 435.254 29.7545 435.079 29.307C433.984 26.2865 434.422 24.4219 436.392 23.1168C438.406 21.8116 441.821 21.2895 446.637 21.5879C451.584 21.8862 456.662 22.8185 460.909 25.0932C464.28 30.7613 465.944 35.0124 472.161 38.7415C471.504 38.5177 470.015 38.0329 468.002 37.138C465.988 36.243 464.806 35.4226 464.105 34.9378C463.448 34.4531 462.529 33.6327 461.303 32.4021C460.077 31.2088 459.114 30.3511 458.457 29.8663C457.801 29.3443 456.969 28.6358 455.874 27.7781C454.78 26.9204 453.904 26.2865 453.204 25.8763C452.503 25.4661 451.715 25.0186 450.84 24.5338C449.964 24.049 449.132 23.6761 448.388 23.4897C447.644 23.2659 446.987 23.1541 446.33 23.1168C445.148 23.0049 444.316 23.2287 443.791 23.7507C443.266 24.2355 443.222 25.0559 443.747 26.1746C445.542 29.8291 449.176 32.4394 452.897 34.8633C458.851 37.4363 464.893 39.2262 471.285 40.9789C471.679 41.0908 473.387 41.5009 476.189 42.3213C478.991 43.1417 480.523 43.6638 481.18 43.9248C481.836 44.1859 483.237 44.6706 484.901 45.6029C486.565 46.5352 487.396 47.3555 487.834 47.9895C488.272 48.6234 488.754 49.4065 489.191 50.3761C489.629 51.3456 489.804 52.2033 489.761 53.0237C489.673 56.1561 487.396 58.6545 483.675 60.5936C480.041 62.4582 474.744 63.5769 470.453 63.4277C470.453 63.465 470.41 63.5396 470.322 63.6142Z" fill="#282828"/>
<path d="M497.291 53.2101C495.715 41.0535 484.332 42.8434 477.633 33.8564C476.495 30.5376 473.605 26.8085 470.366 24.683C474.656 23.788 478.903 22.7812 483.106 21.6625C485.952 27.8527 487.44 34.826 493.788 39.0025C501.45 44.074 505.346 44.6706 507.054 53.322C507.316 57.2375 507.623 60.3699 509.287 62.7938C503.683 62.7565 498.123 62.7192 492.519 62.6819C495.321 60.4818 497.422 56.4544 497.291 53.2101ZM470.672 13.2348C469.578 12.75 468.352 11.8551 467.082 10.5872C465.812 9.31933 465.024 8.01417 464.762 6.67172C464.411 5.03094 464.893 3.57661 466.031 2.27145C467.17 0.966285 468.79 0.220477 470.76 0.034025C472.511 -0.115137 473.999 0.220477 475.269 1.15274C476.495 2.04771 477.239 3.35287 477.546 4.95636C477.808 6.48526 477.546 7.9023 476.626 9.24475C475.707 10.5872 474.744 11.4822 473.693 12.0042C472.598 12.5263 471.679 12.9365 470.76 13.1602C470.716 13.2348 470.716 13.2348 470.672 13.2348Z" fill="#282828"/>
<path d="M529.25 53.0983C535.642 56.1934 542.385 59.2139 547.988 63.2413C550.966 65.3668 552.585 67.3805 552.717 69.1704C552.892 72.3028 550.966 74.9132 546.894 76.9268C542.297 79.2015 536.781 80.1338 531.658 79.9846C526.842 79.8355 521.895 79.388 517.342 77.6353C513.314 76.1064 511.475 73.869 512.001 70.9231C512.22 69.7671 512.701 68.7602 513.446 67.828C514.234 66.8957 515.066 66.1872 515.985 65.6278C516.948 65.0685 517.911 64.621 518.918 64.2108C519.925 63.8006 520.801 63.4277 521.545 63.1667C522.289 62.9056 522.858 62.57 523.252 62.2717C523.646 61.9734 523.646 61.6005 523.34 61.153C522.99 60.7428 522.333 60.2207 521.239 59.6241C518.305 58.1698 516.904 56.6409 516.817 55.0747C516.773 54.2543 517.079 53.4339 517.692 52.6508C518.305 51.8677 519.619 50.749 521.282 49.2574C522.333 48.2505 522.727 47.542 522.552 47.0572C522.289 46.4979 521.326 45.9012 519.531 45.2673C513.314 43.0299 504.865 41.0535 500.268 36.9888C497.115 34.2293 497.51 29.046 499.567 25.7271C501.318 22.8931 505.915 20.6184 509.68 20.5438C516.817 19.9098 523.997 19.2386 531.133 18.6047C528.988 21.4015 527.981 22.8185 525.879 25.6526C529.382 27.7781 531.965 31.5817 534.066 34.6022C536.912 38.7042 539.057 41.4637 537.875 43.7011C536.693 45.9385 533.541 47.3183 529.338 47.281C527.412 47.281 526.142 47.3929 525.485 47.6539C524.829 47.9149 524.697 48.437 525.004 49.1828C525.441 50.3761 526.842 51.6067 529.382 52.7627C529.294 52.9118 529.294 52.9864 529.25 53.0983ZM533.191 78.3066C538.532 78.3439 541.334 76.8523 541.159 74.3165C540.852 69.506 532.271 65.5533 527.718 63.3531C526.361 62.6446 525.047 62.8311 523.778 63.8752C522.464 64.9193 521.676 66.4855 521.414 68.5738C521.063 71.1841 521.983 73.4588 524.303 75.3979C526.624 77.337 529.732 78.3066 533.322 78.3066C533.234 78.3066 533.234 78.3066 533.191 78.3066ZM508.279 23.2287C505.609 23.4524 505.302 26.2865 507.535 30.9105C510.075 36.1312 513.271 37.8465 519.268 40.867C522.815 42.657 526.667 45.3046 530.432 45.6402C532.665 45.8267 532.928 43.4401 528.988 40.2331C524.785 36.8397 521.326 33.8564 517.999 29.7172C515.678 26.8086 512.658 23.6762 508.279 23.266C508.279 23.266 508.279 23.266 508.279 23.2287Z" fill="#282828"/>
<path d="M582.838 53.6576C579.248 45.9012 575.089 38.5177 570.93 30.9478C569.31 26.9577 565.37 23.1913 560.16 23.4524C557.314 23.5642 554.862 24.683 552.936 26.6966C557.139 36.0193 563.575 44.2232 567.777 53.6204C568.872 56.8273 571.017 60.5937 573.819 63.0175C568.303 63.0175 562.786 62.9803 557.226 62.943C558.89 60.5564 559.284 57.4613 557.927 53.5458C554.205 44.5961 547.595 37.7719 543.348 29.1578C542.034 25.839 539.189 22.0726 535.949 19.8352C540.064 18.6046 544.18 17.374 548.339 16.2553C549.784 19.7606 550.572 21.5133 552.192 25.0559C554.775 20.5064 558.89 15.7332 565.107 15.3976C572.768 14.9874 577.453 22.2591 579.992 27.4797C584.37 36.243 589.099 44.8198 593.214 53.6576C594.527 56.9392 597.023 60.6682 600 63.0548C594.396 63.0548 588.748 63.0548 583.144 63.0175C584.545 60.7055 584.545 57.5731 582.838 53.6576Z" fill="#282828"/>
<path d="M44.9521 33.5719C45.1633 42.4144 43.9804 50.896 47.3602 59.3054C48.3742 61.8318 49.7261 63.3837 51.1626 63.8529C49.6839 64.1778 47.825 64.3582 45.5436 64.3582C42.037 64.3582 39.2063 63.3116 37.0517 61.2543C34.897 59.1971 33.5028 56.7067 32.9114 53.7833C32.3199 50.8599 31.8552 47.9364 32.0664 45.1213C32.2776 42.27 32.4889 39.8879 32.3199 37.9029C32.1509 35.9178 31.3482 34.9073 30.123 34.8712C30.1652 34.7629 30.2075 34.7268 30.2497 34.6185C34.2211 34.6907 37.2207 34.4742 39.2486 34.005C41.2765 33.5358 42.7129 32.85 43.3889 31.9838C44.0649 31.1176 44.9521 29.6017 45.5858 27.5445C46.98 22.9969 50.7401 5.8172 40.4738 5.60065C38.7416 5.56456 37.3897 6.53904 36.5025 8.37972C34.897 11.8445 34.2633 15.8146 33.3338 19.496C30.461 29.3491 25.8559 38.4443 21.7578 47.9364C20.1946 52.0509 19.3497 55.227 19.0117 57.3925C18.6737 59.558 18.7582 60.9656 19.0962 61.6513C19.4342 62.3371 20.1946 63.0589 21.3353 63.8529C14.2376 63.8529 7.0977 63.8529 0 63.8168C1.56318 63.0228 2.74613 62.2288 3.5066 61.5791C4.26707 60.8934 5.15428 59.4858 6.25274 57.3564C7.39344 55.1909 8.70313 52.0509 10.3086 47.9003C14.1954 38.4082 18.4202 29.0965 21.5466 19.3877C22.7718 15.2372 23.2365 11.9889 23.2365 9.8234C23.2365 7.65789 22.9408 6.14203 22.4338 5.45628C21.9691 4.77054 21.1241 3.97651 19.8567 3.1464C28.0951 3.1464 36.3335 3.1464 44.5296 3.1464C49.1347 3.11031 53.5285 4.73444 56.5704 7.69398C59.8657 10.8701 61.3444 15.2011 60.8374 19.3877C59.9502 26.7144 52.9793 31.2981 45.2478 33.4997C45.1211 33.4997 45.0788 33.5358 44.9521 33.5719Z" fill="#282828"/>
<path d="M71.5684 64.8274C65.9916 64.8996 61.0063 62.2649 58.3447 58.1504C55.1338 53.1697 55.5986 46.8897 59.4431 42.3422C63.837 37.2532 68.78 31.8394 74.1033 27.3279C78.2858 23.7909 84.0316 20.8314 89.9886 20.9036C93.7064 20.9397 98.8185 22.7804 101.438 25.0181C104.099 27.3279 105.663 32.0199 103.424 35.0155C101.649 37.3254 99.0297 38.8773 96.8328 39.8157C90.2843 39.7074 83.7359 39.5992 77.1874 39.4909C75.7087 39.4548 74.5257 39.5992 73.6385 39.8879C72.7513 40.1766 71.9486 40.8263 71.1459 41.6203C68.5687 44.0385 67.4703 49.0192 69.625 51.9065C72.1176 55.227 76.8916 57.212 81.6657 57.1759C84.9611 57.1398 87.6227 56.3819 89.4816 54.7939C87.9184 57.3564 85.5525 59.6663 82.3839 61.6874C79.173 63.7086 75.6242 64.7552 71.6106 64.7191C71.5684 64.7913 71.5684 64.7913 71.5684 64.8274ZM78.7083 37.9389C84.7921 38.2277 92.5235 35.3403 93.4952 29.6739C94.2134 25.4872 92.3122 23.1413 88.8056 23.0691C86.3975 23.033 84.2006 23.9353 81.9614 25.776C79.7223 27.6167 78.4971 30.4679 76.5959 34.0049C75.8354 35.4125 75.3285 36.387 75.4975 36.9645C75.6664 37.5419 76.6804 37.8307 78.6661 37.8668C78.6661 37.8668 78.6661 37.9029 78.7083 37.9389Z" fill="#282828"/>
<path d="M101.818 64.8996C99.1142 64.8996 97.0018 64.1055 95.5231 62.5897C94.0445 61.0738 93.622 59.0166 94.3825 56.3097C94.9317 54.2885 96.0724 52.3757 97.7201 50.6072C99.3677 48.8387 101.776 47.4672 104.48 46.4205C107.184 45.3738 110.395 44.2911 113.901 43.1722C117.408 42.0534 120.872 41.0428 123.956 40.0683C127.04 39.0939 130.209 37.8667 132.744 36.2787C135.279 34.6907 136.504 32.7417 136.757 30.6123C137.349 25.8481 135.067 23.2134 132.068 23.2134C130.716 23.2134 129.279 24.2601 127.252 26.3895C125.266 28.4829 123.238 31.1176 119.478 33.9327C115.676 36.7479 112.169 38.0472 111.451 38.3359C111.366 38.3359 111.324 38.3359 111.239 38.3359C113.521 36.6035 116.098 34.0771 117.07 30.3596C118.041 26.6422 117.957 24.2962 117.957 23.5383C122.815 21.9141 128.223 21.5171 133.209 21.4088C136.631 21.3367 141.658 22.3111 144.235 24.5127C146.855 26.7144 148.038 31.0815 146.855 34.0771C140.137 42.8113 131.814 45.2295 129.66 56.2375C129.068 58.8 130.378 60.0632 133.547 60.0993C134.307 60.0993 134.983 59.9911 135.659 59.6662C135.363 60.8934 134.096 62.0844 131.772 63.2393C129.491 64.3943 127.209 64.9356 125.012 64.9356C122.52 64.9356 120.661 64.1416 119.351 62.6258C118.041 61.1099 117.703 59.2331 118.253 56.9954C118.379 56.5262 118.253 56.3097 117.957 56.3097C117.45 56.3097 116.436 57.0315 115 58.4391C113.563 59.8467 111.704 61.2904 109.465 62.734C107.184 64.1777 104.776 64.8996 102.114 64.8996C101.987 64.8996 101.945 64.8996 101.818 64.8996ZM110.944 57.6812C112.38 57.6812 114.07 56.8872 116.014 55.263C117.957 53.6389 119.098 51.8704 119.647 49.8853C120.83 46.3483 124.59 44.0024 127.674 41.7286C129.195 40.6458 129.66 40.0683 129.11 40.1044C125.477 40.321 121.464 41.9812 117.915 43.2805C113.69 44.8325 108.324 47.395 107.395 51.6177C106.93 53.6028 106.972 55.1187 107.691 56.1292C108.409 57.1398 109.55 57.5729 110.986 57.5729C110.986 57.6451 110.986 57.6451 110.944 57.6812Z" fill="#282828"/>
<path d="M144.151 55.444C145.165 50.2467 146.137 47.4316 150.488 43.5698C153.361 41.0433 156.91 38.9861 158.896 35.81C163.205 28.9525 159.529 20.0018 157.459 12.9639C156.614 9.71558 154.586 5.96203 152.009 3.4356C156.318 2.5333 160.67 1.63101 164.979 0.764801C166.331 10.2931 172.119 20.3988 171.148 30.0714C170.725 34.4746 168.697 37.0371 165.317 40.2132C159.825 45.3743 156.868 48.4422 155.6 55.4801C154.84 59.0893 155.262 62.0127 157.079 64.2865C150.953 64.2504 144.827 64.2143 138.743 64.1782C141.447 61.9766 143.306 59.0532 144.151 55.444Z" fill="#282828"/>
<path d="M168.486 55.5878C169.415 45.8791 177.78 41.4037 182.259 33.1026C182.808 29.3491 181.287 26.3534 178.794 24.0436C183.019 23.2495 187.244 22.4555 191.469 21.6615C192.821 28.5189 193.243 33.3192 188.765 39.2382C184.371 45.0851 181.329 48.6221 180.231 55.6239C179.513 59.2692 179.851 62.1927 181.583 64.4303C175.33 64.3943 169.12 64.3582 162.867 64.3221C165.697 62.3009 167.979 58.6917 168.486 55.5878ZM180.653 12.8551C179.639 12.3137 178.499 11.3392 177.316 9.96772C176.133 8.59623 175.372 7.22474 175.077 5.85325C174.739 4.19302 175.161 2.78544 176.217 1.6305C177.273 0.475563 178.837 -0.0658146 180.738 0.00636915C182.428 0.0785529 183.864 0.619931 185.089 1.66659C186.315 2.71326 187.033 4.04866 187.329 5.60061C187.624 7.08037 187.329 8.37968 186.399 9.53462C185.47 10.6896 184.54 11.4475 183.484 11.8806C182.428 12.2776 181.498 12.5663 180.653 12.7468C180.696 12.8551 180.696 12.8551 180.653 12.8551Z" fill="#282828"/>
<path d="M216.902 60.0993C216.015 61.2543 213.903 62.4092 210.692 63.6363C207.481 64.8273 204.693 65.4409 202.369 65.4048C199.581 65.4048 197.553 64.5386 196.243 62.9145C194.933 61.2903 194.68 59.1248 195.271 56.4179C197.046 45.9874 205.833 37.975 205.453 27.4362C203.003 27.4362 201.777 27.4362 199.285 27.4362C203.467 21.7698 207.101 15.8507 211.03 10.0038C212.128 14.2627 213.607 18.4854 214.705 22.7443C218.212 22.7804 220.958 22.7082 222.986 22.5638C222.775 24.4406 222.648 25.4151 222.226 27.364C219.522 27.364 218.17 27.364 215.508 27.364C215.888 37.181 208.917 44.8325 207.608 54.469C206.89 58.4391 208.368 60.4602 212.846 60.4963C213.818 60.4963 215.128 60.3881 216.818 60.0993C216.86 60.0993 216.86 60.0993 216.902 60.0993Z" fill="#282828"/>
<path d="M264.981 22.6485C261.474 24.7418 260.207 29.0728 259.108 32.3572C254.799 43.3291 250.954 52.9656 243.054 62.6021C241.153 64.8037 239.463 66.6444 238.153 68.0881C236.801 69.5318 235.027 71.3003 232.956 73.4658C230.886 75.5952 228.985 77.2193 226.873 78.3382C224.76 79.457 222.69 80.0345 220.409 79.9984C217.62 79.9623 215.804 79.4931 214.959 78.5547C215.17 75.0177 215.635 73.2492 216.733 69.7483C219.141 70.5063 221.803 70.8672 224.76 70.9033C228.267 70.9394 231.267 70.3258 233.717 69.1709C236.167 68.0159 237.9 66.2474 238.787 63.9375C239.125 63.1074 239.336 62.0969 239.378 60.9419C239.42 59.7509 239.463 58.8125 239.378 58.0907C239.294 57.3688 239.082 56.1056 238.575 54.301C238.069 52.4964 237.562 51.2693 237.35 50.7279C235.238 44.8089 233.506 38.9981 232.323 32.8986C231.098 28.7841 228.267 24.814 224 22.5402C230.548 22.6124 237.097 22.6485 243.645 22.7207C242.124 23.4425 241.491 24.5252 241.575 25.9689C241.66 27.4126 242.843 29.6864 243.476 32.682C244.828 38.7454 247.236 44.4119 249.349 50.2587C252.137 44.4479 254.123 38.4928 256.404 32.5376C257.714 29.3976 257.587 27.3043 257.165 25.9328C256.7 24.5613 255.644 23.5147 254.123 22.7207C258.474 22.6485 260.629 22.6485 264.981 22.6485Z" fill="#282828"/>
<path d="M300.863 64.2512C302.764 63.6015 304.116 62.8075 304.961 61.9052C305.806 60.9668 306.355 59.9201 306.482 58.7652C306.566 57.6103 306.524 55.95 305.763 53.8206C304.58 50.5723 303.482 48.9121 299.933 45.8443C299.975 47.1436 299.891 47.8294 299.468 49.2009C297.821 53.1349 294.483 56.4914 291.99 59.884C290.976 61.2555 290.892 62.7353 291.737 64.1068C286.667 64.0707 281.597 64.0346 276.528 64.0346C278.851 63.024 280.668 62.1939 281.978 61.5443C283.287 60.8946 285.526 59.4509 288.526 57.3576C291.483 55.3004 294.694 52.413 296.427 49.4174C297.652 47.2158 297.863 46.2052 298.032 44.148C292.582 40.0696 286.287 36.1356 283.034 30.4331C281.259 27.2209 277.499 24.0448 273.866 22.3124C280.245 22.3846 286.625 22.4207 293.004 22.4929C291.399 23.1786 290.723 24.0809 290.976 25.2358C291.23 26.3908 292.202 27.9788 293.723 30.3609C295.201 33.2843 298.454 36.1356 301.37 38.0846C301.032 37.074 300.905 36.6048 300.694 35.5581C300.102 32.4903 301.158 30.1804 301.539 29.0616C301.919 27.9427 302.172 26.86 302.257 25.8133C302.341 24.7667 302.172 24.0809 301.834 23.72C301.496 23.323 300.863 22.9621 300.018 22.5651C304.242 22.6011 308.425 22.6372 312.65 22.6733C310.115 23.9726 308.256 25.3441 307.031 26.6434C305.299 28.4841 302.764 31.4797 302.933 35.0528C302.975 36.8574 303.186 37.7597 303.482 39.4921C309.016 43.1735 317.128 47.3602 318.903 53.6762C320.128 57.2854 321.226 61.2194 324.099 64.2151C316.452 64.179 308.763 64.1429 301.116 64.0707C300.989 64.179 300.947 64.2151 300.863 64.2512Z" fill="#282828"/>
</svg>
