<svg fill="none" height="922" viewBox="0 0 1908 922" width="1908" xmlns="http://www.w3.org/2000/svg"><g stroke="#e7e2b9" stroke-miterlimit="10"><path d="m189.851 145.358c60.971 24.736 118.098 28.858 178.861.802 47.364-21.987 86.626-58.7461 132.016-84.5119 35.627-20.1546 63.567-20.1547 100.648-4.9242 28.045 11.566 54.012 27.7126 78.109 47.2951 37.496 30.575 70.215 67.22 113.112 89.321 69.8 36.072 151.336 37.561 226.853 34.355 126.51-5.268 249.07-32.523 365.61-87.261 74.99-35.27 147.7-82.1069 228.93-97.7954 51.62-9.9628 103.03 0 153.62-17.2917 47.36-16.26114 102.41-51.1882 148.53-12.4822 5.71 104.2083 30.85 202.8063 8.2 307.3583-12.77 59.204-43.52 109.018-64.08 164.786-20.15 54.853-32.62 112.454-46.64 169.368-8.41 34.125-25.76 74.434.31 103.75 14.02 15.803 31.06 28.285 45.39 43.745 32.3 34.812 57.34 76.038 80.4 118.637-206.08-6.642-411.74-21.185-616.88-44.317-210.33-23.59-420.35-59.548-631.722-69.625-234.222-11.222-462.94 25.651-688.74874 93.673-.10387-70.884-8.82878-156.427 19.11174-222.96 26.3825-62.754 84.652-77.527 128.796-119.554 59.101-56.341-14.957-107.987-50.064-150.472-23.8897-28.858-51.4147-69.167-23.3704-103.98 21.8123-27.025 55.3614-43.286 81.5364-64.701 13.918-11.451 29.602-24.391 36.458-42.485 7.79-20.956 4.362-29.659-4.986-50.73z"/><path d="m2.16003 876.65c131.18497-37.79 260.81297-69.854 396.04897-83.367 97.428-9.734 195.272-12.597 293.012-9.39 209.086 6.756 417.649 42.829 625.289 67.564 202.75 24.162 406.33 39.278 610.22 45.577"/><path d="m2.16003 854.434c72.81147-19.926 145.10397-42.714 218.84997-58.403 58.478-12.482 118.098-17.635 177.407-22.674 96.493-8.245 193.194-11.68 289.895-9.963 207.217 3.55 415.158 38.706 620.718 64.587 201.09 25.308 403.21 41.798 605.55 48.096"/><path d="m2.16003 833.707c74.05787-19.239 147.07697-43.974 221.86197-59.777 58.893-12.482 119.137-15.231 178.861-19.239 94.935-6.412 189.975-9.962 285.118-9.504 203.685 1.03 409.239 34.011 611.059 60.578 200.36 26.453 401.76 45.119 603.57 51.99"/><path d="m2.3692 814.124c75.6159-18.551 149.4658-45.347 225.6018-61.379 57.75-12.139 116.851-12.368 175.433-15.231 95.35-4.581 190.701-8.131 286.156-8.589 200.154-1.03 402.9 28.858 601.08 55.884 199.43 27.254 399.9 49.012 600.78 56.57"/><path d="m2.78546 795.687c75.20044-17.291 148.01154-45.004 223.31654-61.609 60.555-13.398 122.772-10.993 184.262-12.711 95.558-2.633 191.013-5.725 286.572-6.871 197.245-2.404 397.714 24.049 592.874 51.647 196.11 27.827 393.14 52.447 590.91 61.036"/><path d="m3.40698 778.396c77.07002-16.605 151.12802-46.379 228.09402-63.212 59.724-13.169 120.799-8.245 181.458-8.474 96.181-.344 192.363-2.978 288.545-4.81 195.791-3.664 394.906 18.551 588.726 46.951 192.67 28.171 386.08 56.227 580.41 65.96"/><path d="m4.34332 762.134c79.14748-15.803 154.55568-47.867 233.39168-65.044 60.763-13.169 122.772-5.382 184.262-4.237 95.143 1.832 190.39 0 285.533-2.29 192.363-4.581 387.53 12.367 577.92 40.881 191.22 28.629 382.65 61.037 575.64 72.488"/><path d="m5.59021 746.79c80.91319-15.002 157.35979-49.127 237.64979-66.534 61.698-13.398 124.226-2.862 186.547-.114 95.247 4.237 190.598 3.206 285.845.572 189.559-5.153 381.198 6.184 568.988 34.813 188.73 28.858 377.04 65.846 567.43 78.901"/><path d="m7.25153 732.475c83.19827-14.199 161.20347-50.73 243.57047-68.479 62.944-13.513 126.407.114 189.767 4.466 94.416 6.412 188.936 6.412 283.352 3.664 186.235-5.497 373.609-.458 558.289 27.942 187.07 28.857 372.89 71.113 561.62 86.229"/><path d="m9.32922 718.963c85.58728-13.398 165.14978-52.562 249.80278-70.427 62.528-13.169 124.745 2.749 187.378 8.704 95.454 9.046 191.117 10.191 286.883 7.214 185.093-5.84 369.977-7.214 553.717 21.872 183.23 28.973 364.37 75.695 549.05 92.757"/><path d="m11.9246 706.252c88.0804-12.483 169.2014-54.395 256.1384-72.374 63.879-13.169 127.031 6.069 190.702 13.513 96.078 11.222 192.467 13.513 288.961 10.306 180.522-6.069 359.484-13.742 538.974 14.658 181.56 28.629 359.59 81.191 542.4 100.43"/><path d="m15.1436 694.227c87.7684-11.222 168.3704-53.249 254.4764-72.602 66.684-15.001 130.043 6.298 196.207 15.803 97.221 13.971 195.064 17.635 292.908 14.085 179.484-6.298 355.855-20.956 534.715 8.016 177.72 28.744 350.66 86.001 529.41 107.415"/><path d="m18.9882 682.891c90.0538-10.307 172.4208-55.082 260.7088-74.55 68.034-15.116 132.536 9.505 199.738 20.613 96.39 15.918 193.61 20.727 291.038 17.177 79.771-2.863 159.334-11.909 239.107-15.345 95.56-4.122 191.01.344 285.63 15.574 175.96 28.4 345.57 91.498 522.15 115.317"/><path d="m23.4542 672.126c91.8198-9.275 175.3288-56.341 265.0708-76.267 69.488-15.459 134.198 12.024 202.439 24.736 96.701 18.207 194.545 24.162 292.493 20.269 78.835-3.092 157.256-14.429 235.983-19.468 93.9-5.955 187.9-2.748 280.97 12.368 173.25 28.17 338.5 96.65 512.07 122.645"/><path d="m28.6494 661.82c94.1046-8.36 179.0686-58.403 270.8876-78.214 70.838-15.23 136.587 15.345 205.763 29.66 95.87 19.811 193.09 26.796 290.519 22.673 78.524-3.32 156.425-17.062 234.641-23.704 91.3-7.673 182.6-5.726 273.27 8.818 171.59 27.598 333.11 101.918 504.39 130.432"/><path d="m34.5694 652.086c96.2856-7.329 182.4966-60.693 276.3926-80.16 70.319-14.544 134.509 17.406 202.647 33.095 97.116 22.33 195.895 30.689 294.881 26.223 78.213-3.55 155.698-19.811 233.6-27.941 90.68-9.505 181.56-8.703 271.72 6.184 167.85 27.827 323.65 106.384 490.88 136.959"/><path d="m41.4237 642.581c95.1433-5.955 180.6263-58.631 272.7573-80.275 39.366-9.275 71.877-7.329 110.1 5.497 34.484 11.68 69.28 21.872 104.388 30.575 97.739 23.934 197.245 33.095 297.166 27.598 75.201-4.122 149.674-21.986 224.355-31.606 89.53-11.566 179.48-12.367 268.81 2.176 166.4 27.14 318.15 111.194 483.19 144.174"/><path d="m49.1109 633.534c96.2861-4.809 182.4961-59.776 275.5621-81.763 39.989-9.505 72.396-7.1 111.139 6.871 34.795 12.482 70.007 23.59 105.633 32.865 97.948 25.652 197.973 35.615 298.413 29.202 74.681-4.81 148.324-24.506 222.282-35.729 88.28-13.398 177.09-15.459 265.38-1.031 164.11 26.797 310.98 115.546 473.01 150.588"/><path d="m57.732 624.717c97.844-3.664 185.093-61.609 279.509-83.596 41.547-9.619 72.5-5.611 112.281 9.39 33.134 12.483 66.58 23.705 100.544 33.21 99.091 27.712 200.57 38.82 302.672 31.377 74.785-5.497 148.222-27.14 222.172-39.966 88.08-15.23 176.58-18.322 264.87-3.435 160.68 26.911 301.84 119.324 459.92 156.083"/><path d="m67.389 616.128c99.09-2.405 187.17-63.441 282.833-85.428 42.897-9.848 73.019-3.779 113.216 12.024 33.549 13.169 67.514 24.964 101.894 34.927 98.052 28.4 198.804 39.851 299.971 31.148 75.097-6.413 148.427-29.774 222.487-44.203 86-16.719 172.63-20.956 259.15-6.642 159.54 26.339 296.54 123.218 452.66 161.924"/><path d="m78.0899 607.654c100.1291-1.03 188.8321-65.388 285.4291-87.031 39.055-8.818 69.384-3.893 105.946 11.337 36.457 15.116 73.642 28.629 111.242 39.851 97.013 28.858 196.83 40.309 297.063 30.118 75.512-7.673 148.95-32.523 223.21-48.44 86-18.437 172.84-23.819 259.67-8.703 68.56 11.909 133.78 34.354 197.35 64.586 79.88 38.019 157.47 79.244 242.53 101.575"/><path d="m89.8267 599.18c100.2323.344 188.9363-66.418 285.3253-88.291 76.135-17.292 145.935 32.064 218.019 54.051 97.013 29.66 197.142 41.111 297.374 28.972 75.512-9.161 148.535-34.927 222.695-52.333 85.38-20.04 171.59-26.338 258.21-11.337 67.83 11.795 132.33 34.698 194.76 65.961 77.59 38.935 152.68 81.42 235.98 104.323"/><path d="m102.81 590.707c100.648 1.832 189.352-68.251 286.053-89.78 73.434-16.376 142.922 33.553 212.202 55.654 99.402 31.606 202.335 43.172 305.164 27.827 74.681-11.222 146.661-37.446 219.891-55.883 83.92-21.071 168.78-28.629 254.16-13.971 67.62 11.566 131.81 34.584 193.51 66.877 75.93 39.737 149.05 83.71 231 107.3"/><path d="m120.778 579.713c99.401 4.351 187.482-68.137 283.04-88.635 40.197-8.588 67.099 1.26 104.284 17.407 35.107 15.23 70.734 28.857 107.088 40.194 98.259 30.69 200.153 42.142 301.425 25.537 75.615-12.368 148.325-38.935 222.585-58.288 84.55-22.101 170.14-30.232 256.35-15.46 65.33 11.223 126.93 33.553 186.34 65.388 74.47 39.966 145.93 84.627 226.22 109.477"/><path d="m141.968 564.711c93.689 7.673 181.146-61.38 270.68-82.221 39.263-9.162 66.788-1.031 103.245 14.085 35.627 14.772 71.773 28.056 108.438 39.278 98.052 29.889 199.635 42.944 300.906 27.713 76.033-11.337 149.263-37.332 223.833-56.341 83.62-21.415 168.37-30.805 253.86-18.208 67.93 9.963 130.14 32.408 191.63 65.388 71.57 38.362 140.95 80.389 217.09 106.957"/><path d="m157.34 550.397c42.482 5.038 83.095-10.421 122.772-25.537 48.299-18.437 95.871-41.34 146.143-52.906 38.535-8.818 65.436-.802 101.479 13.398 35.419 13.971 71.253 26.797 107.607 37.676 97.74 29.315 199.011 43.973 300.075 30.232 76.444-10.421 150.504-35.5 225.604-53.822 83.51-20.384 168.16-29.889 253.54-18.437 67.1 9.046 127.55 30.346 188.52 62.067 70.21 36.415 138.56 76.267 212.1 104.208"/><path d="m167.623 536.769c42.482 6.299 83.821-9.161 123.707-24.048 49.337-18.322 98.155-40.996 149.362-52.333 38.639-8.474 65.125 0 101.583 13.742 35.315 13.284 70.942 25.537 106.984 36.186 97.532 28.744 198.596 45.005 299.452 32.179 75.819-9.619 149.669-33.095 224.359-50.043 84.34-19.238 169.61-28.17 255.61-17.063 64.51 8.36 121.95 28.171 181.15 57.143 69.49 34.011 137.42 71.343 208.88 100.43"/><path d="m173.129 523.715c42.689 7.329 84.964-8.13 125.368-22.559 50.896-18.094 101.168-40.653 153.725-52.219 70.111-15.345 140.949 27.598 208.152 47.409 96.805 28.514 197.245 47.295 297.581 36.301 76.135-8.359 150.715-30.232 225.805-45.806 84.35-17.635 169.41-25.994 255.1-15.459 136.38 16.834 256.87 93.559 383.28 147.381"/><path d="m174.479 511.004c43.521 8.245 87.145-7.329 128.485-21.414 52.973-18.093 105.218-40.653 159.749-52.562 39.054-8.589 66.683-2.176 103.972 10.879 34.692 12.024 69.488 23.59 104.595 34.01 95.974 28.515 195.48 49.929 295.297 40.997 76.443-6.757 151.753-26.911 227.263-40.997 84.24-15.688 169.2-23.246 254.48-13.169 132.01 15.689 254.99 81.878 377.25 135.586"/><path d="m172.298 498.522c44.352 8.932 89.43-6.528 131.809-20.384 55.153-17.979 109.58-40.424 166.085-53.135 20.046-4.466 41.754-9.161 62.216-6.069 14.957 2.29 29.603 9.161 43.937 13.971 34.172 11.451 68.553 22.674 103.037 33.094 94.727 28.629 192.779 53.135 291.661 47.295 77.697-4.581 154.657-23.132 231.527-35.614 83.4-13.627 167.43-20.155 251.56-10.764 128.9 14.428 255.52 69.51 374.97 122.874"/><path d="m166.999 486.154c45.598 9.39 92.235-5.955 136.067-19.582 57.751-17.979 114.671-40.309 173.46-54.051 40.82-9.505 70.111-7.901 109.269 4.695 35.939 11.681 71.877 23.247 107.919 34.355 92.858 28.399 188.728 55.196 285.845 51.531 78.831-2.977 157.151-19.582 235.361-30.232 82.99-11.222 166.5-16.261 249.91-6.756 57.85 6.642 113.01 21.758 169.1 38.134 67.41 19.811 134.19 41.454 198.8 70.541"/><path d="m159.211 473.901c47.156 9.848 95.558-5.497 140.949-19.009 64.19-19.124 127.55-43.86 192.883-57.716 40.301-8.588 70.422-5.497 109.477 6.642 32.822 10.306 65.644 20.842 98.467 31.033 93.065 29.202 188.935 59.777 286.571 58.174 78.522-1.26 156.942-15.345 235.052-23.934 83.93-9.161 168.27-12.825 252.4-2.977 56.3 6.527 110.93 20.727 166.29 33.438 66.48 15.345 132.44 32.064 195.48 60.464"/><path d="m149.446 461.534c48.818 10.191 98.986-5.039 146.246-18.437 67.307-19.239 133.678-43.745 201.92-58.975 40.197-8.933 73.954-8.475 113.32 3.435 32.303 9.734 64.502 19.926 96.701 30.232 93.377 29.888 188.936 64.128 287.091 64.815 78.316.573 156.836-11.108 234.746-17.52 83.19-6.871 166.6-9.162 249.69.343 56.72 6.527 112.49 19.697 168.89 29.201 65.65 10.994 130.88 22.674 192.68 50.501"/><path d="m138.227 448.937c54.843 11.337 113.009-6.871 165.982-21.987 65.54-18.666 130.354-41.454 196.622-56.341 41.235-9.276 77.07-11.566 117.578.229 33.965 9.848 67.722 20.498 101.376 31.606 90.261 29.545 181.976 65.617 276.912 69.51 79.463 3.207 159.753-6.641 239.103-10.993 84.13-4.695 168.37-5.497 252.19 4.352 55.78 6.527 110.73 18.322 166.5 24.162 64.92 6.757 129.53 13.513 190.39 40.767"/><path d="m126.18 435.997c56.193 11.566 115.813-6.184 170.344-21.185 68.137-18.666 135.444-41.111 204.1-57.258 45.598-10.764 84.653-14.772 129.835-2.176 30.953 8.589 61.698 18.208 92.235 28.4 91.819 30.576 184.366 71.114 281.066 77.069 78.73 4.809 158.61-2.52 237.44-4.81 84.34-2.519 168.79-1.947 252.71 7.787 54.64 6.413 108.03 16.948 162.97 19.238 65.54 2.749 131.4 4.238 193.09 31.721"/><path d="m113.716 422.713c58.063 12.024 119.345-5.84 175.641-20.613 70.838-18.551 140.845-41.34 211.995-58.288 45.909-10.993 88.495-17.635 134.613-5.497 32.51 8.589 64.71 18.666 96.701 29.431 90.365 30.804 180.834 73.862 276.084 81.534 78.73 6.299 158.71 1.374 237.54 1.031 83.62-.344 167.33 1.489 250.53 10.993 55.88 6.413 109.79 16.032 166.19 15.116 64.82-1.03 130.56-4.237 191.85 23.018"/><path d="m101.46 408.742c58.997 12.368 121.421-5.038 178.86-19.582 77.486-19.582 153.829-44.202 231.73-61.952 45.91-10.421 87.457-16.605 133.263-4.924 31.679 8.016 62.944 17.635 94 28.285 89.015 30.804 176.784 75.809 270.477 86.115 80.8 8.932 163.59 5.382 244.71 6.985 82.57 1.604 165.15 4.81 247.31 13.971 57.13 6.413 111.14 14.773 168.68 10.765 62.01-4.237 131.6-14.086 189.87 15.574"/><path d="m89.9302 394.198c60.2438 13.055 123.6028-4.237 182.5998-18.666 79.771-19.467 158.503-44.202 238.585-62.525 46.533-10.65 90.261-18.895 137.106-7.901 31.264 7.329 62.217 16.49 92.754 27.14 90.053 31.262 177.718 79.702 272.345 91.955 80.91 10.421 164 8.818 245.23 12.024 83.61 3.321 167.12 7.673 250.32 16.719 55.05 5.955 106.57 13.17 161.93 6.986 62.84-6.871 135.86-22.674 195.38 8.817"/><path d="m79.6476 378.854c60.4514 13.741 124.2264-3.321 183.6384-17.063 86.211-19.926 170.967-47.295 257.385-65.961 45.391-9.848 88.08-16.948 133.678-6.985 30.538 6.642 60.659 15.459 90.366 25.766 90.365 31.491 177.406 82.794 272.345 95.963 80.6 11.223 163.38 11.566 244.5 16.261 84.03 4.81 167.96 10.192 251.67 18.666 56.4 5.726 108.55 11.566 165.05 3.321 61.7-9.047 135.86-28.514 194.55 4.123"/><path d="m71.2336 362.478c60.6594 14.658 125.0574-2.175 184.7814-15.459 87.768-19.582 174.083-46.608 261.955-65.846 45.702-9.963 89.742-18.552 135.963-9.619 30.33 5.84 60.14 14.199 89.534 24.162 90.573 30.919 176.472 84.283 270.993 99.743 83.41 13.627 169.82 14.772 253.96 20.841 83.71 6.07 167.43 12.139 251.05 19.811 56.4 5.154 108.33 9.734 164.73-.114 61.18-10.65 137.31-33.324 195.48 1.26"/><path d="m65.1063 345.186c59.6207 15.918 123.8107-.572 182.9117-13.169 88.392-18.895 175.225-45.119 263.409-64.93 45.91-10.421 91.612-20.269 138.456-12.711 31.888 5.153 63.36 13.284 94.105 23.705 91.507 30.804 177.095 86.458 272.552 102.49 83.4 13.971 169.61 16.376 253.75 23.361 84.23 6.986 168.57 13.399 252.92 20.04 57.64 4.467 111.24 7.902 168.57-2.977 60.56-11.566 138.36-36.187 195.59.687"/><path d="m63.0287 326.864c64.7093 18.781 136.0673.229 200.2573-14.2 81.641-18.436 162.138-42.026 243.675-61.036 48.402-11.337 95.974-20.842 145.311-12.597 29.187 4.925 57.958 12.368 86.21 22.102 93.274 32.064 179.381 90.237 277.538 104.094 169.72 23.819 342.87 28.056 513.52 40.538 57.23 4.123 108.86 6.527 165.57-6.413 64.29-14.658 144.79-45.119 207.53-9.275"/><path d="m71.4407 308.77c65.3333 20.155 135.3403 3.779 200.3613-11.566 78.213-18.436 155.075-42.828 233.08-62.296 48.091-12.024 94.728-21.528 143.649-12.367 30.434 5.726 60.244 14.658 89.223 25.995 94.104 36.759 179.172 95.161 280.756 104.552 171.69 15.917 344.32 12.482 516.33 23.361 25.44 1.603 51.1 5.267 76.44 5.84 32.41.687 65.13-9.39 96.29-18.322 65.12-18.895 145.62-54.738 211.99-23.476"/><path d="m88.7867 290.792c65.3333 21.3 133.6783 6.756 198.8033-9.619 74.162-18.666 146.662-44.089 220.512-64.129 46.844-12.711 91.404-21.872 139.079-11.451 30.122 6.527 59.517 16.604 88.08 29.087 97.117 42.599 181.562 101.574 288.959 108.445 174.09 11.108 347.86-8.703 521.94-3.206 25.24.801 50.69 4.237 75.82 4.351 32.83.115 65.96-11.451 97.12-21.643 64.29-21.071 143.65-60.464 210.54-31.377"/><path d="m111.846 272.813c64.606 22.216 130.562 9.62 194.96-8.016 69.384-19.009 136.898-45.577 205.866-66.418 45.183-13.628 87.146-22.331 133.159-10.65 30.122 7.558 59.309 18.78 87.457 32.636 44.663 21.873 86.314 50.387 131.082 72.03 53.284 25.766 109.892 39.164 167.95 41.684 177.2 7.787 350.97-33.553 527.45-36.187 25.03-.344 50.16 2.061 75.2 1.832 32.51-.458 64.91-12.024 95.66-22.788 61.9-21.873 138.56-62.754 203.79-34.011"/><path d="m137.295 254.376c127.239 46.149 261.955-35.958 382.027-76.382 43.209-14.543 82.056-21.758 125.992-8.817 28.46 8.359 55.881 19.925 82.367 34.125 46.118 24.735 88.496 57.143 135.444 80.046 55.57 27.14 115.294 39.164 175.845 40.996 99.82 3.092 200.37-11.68 298.31-31.377 79.36-15.917 158.3-35.614 239-40.996 23.58-1.603 47.06-.916 70.63-1.145 31.79-.344 62.84-10.879 92.86-21.758 58.79-21.414 132.43-63.098 194.44-33.095"/><path d="m162.119 235.252c125.473 47.524 246.063-35.27 362.292-78.557 38.95-14.543 72.811-21.414 112.697-8.932 30.744 9.619 60.243 23.361 88.391 40.08 44.144 26.453 84.653 59.891 130.458 83.023 58.997 29.774 123.396 40.997 187.893 42.371 104.91 2.29 210.34-19.468 311.5-48.554 77.18-22.216 153.52-49.7 233.08-59.663 25.14-3.206 50.07-3.435 75.31-4.237 30.95-1.03 60.76-10.764 89.95-21.643 52.97-19.811 122.36-59.548 177.72-27.598"/><path d="m182.891 214.983c123.499 48.439 230.068-32.523 341.934-80.046 37.289-15.803 68.137-21.529 106.569-8.589 30.744 10.421 60.139 25.308 87.768 43.287 43.417 28.285 82.783 63.785 128.796 87.375 62.217 32.064 131.29 41.798 199.322 42.37 109.69 1.031 219.16-26.224 322.82-64.128 76.14-27.827 150.82-62.869 230.49-76.725 54.84-9.505 107.4-6.069 160.78-25.88 49.55-18.437 114.36-56.3418 165.15-22.216"/><path d="m196.604 193.455c57.647 23.132 110.412 21.986 168.37.458 55.05-20.384 103.66-56.456 156.633-81.993 35.731-17.1772 64.398-21.7578 101.375-8.245 30.641 11.108 59.517 26.796 86.73 45.92 42.378 29.889 80.394 66.763 126.2 90.467 65.229 33.782 138.664 41.455 209.818 41.111 114.87-.687 228.4-31.034 335.18-76.725 75.41-32.293 148.94-73.518 229.13-90.123 53.08-10.994 105.63-5.726 157.57-24.7353 46.84-17.1772 107.29-52.7914 154.14-16.8337"/><path d="m200.03 170.437c60.867 24.735 117.786 25.193 178.134-2.291 47.156-21.414 88.391-54.623 133.886-79.473 36.665-20.04 65.54-22.3303 103.868-6.9854 27.836 11.2225 54.011 26.1094 78.524 44.4314 42.17 31.606 79.147 70.656 125.992 94.361 68.033 34.469 145.623 39.164 219.366 37.217 119.24-3.207 235.58-33.438 345.36-84.283 76.14-35.271 149.89-81.5345 231.73-98.7118 50.59-10.5353 101.28-3.3209 150.82-20.8417 47.05-16.4901 103.76-51.30259 149.99-13.7417"/><path d="m1895.05.0386009c5.4 103.0633991 22.85 204.2943991 1.77 306.8993991-12.15 59.09-40.51 110.049-62.22 164.902-21.71 55.081-38.33 112.339-56.5 168.909-10.7 33.438-33.55 76.954-12.36 110.507 11.01 17.406 26.59 31.835 39.26 47.753 29.19 36.644 53.18 77.297 75.41 119.324"/><path d="m1873.76-5c4.36 103.7504 14.23 207.844-7.58 310.221-12.16 56.914-37.92 107.758-59.73 160.435-21.91 52.791-41.96 106.384-62.63 159.748-12.98 33.553-40.3 79.015-25.24 116.576 7.69 19.124 21.92 35.729 33.13 52.334 26.39 38.82 49.65 79.473 71.36 121.729"/><path d="m1852.05-3.85389c2.7 102.94879 4.68 207.38589-17.24 308.27389-12.26 56.57-36.04 108.675-58.89 160.779-21.19 48.211-43.84 95.62-65.54 143.601-15.69 34.584-46.12 80.275-37.81 121.386 4.36 21.643 17.45 41.225 28.04 59.548 23.37 40.538 45.81 81.42 66.89 123.447"/><path d="m1829.72 1.8705c.83 103.6355-4.99 209.6765-28.57 310.3355-12.36 52.791-32.92 104.094-55.56 152.648-20.36 43.745-45.71 84.168-68.04 126.653-19.11 36.302-52.14 82.566-49.44 127.112 1.45 23.246 12.36 44.89 22.02 65.044 20.46 42.485 42.69 84.054 63.26 126.539"/><path d="m1806.66 10.2301c-1.56 152.3049-23.79 320.5269-91.51 455.6549-19.42 38.706-47.26 71.228-69.59 107.873-22.95 37.79-58.17 85.199-60.45 132.722-1.25 24.621 7.37 48.44 16.31 70.656 17.76 44.317 39.67 86.802 59.93 129.745"/><path d="m1782.56 19.7351c-2.8 106.6129-23.68 215.8609-51.41 317.7789-11.63 42.714-24.93 89.894-45.81 128.715-18.59 34.583-49.44 58.631-71.56 90.237-27.21 38.935-65.13 88.978-71.25 139.594-3.02 24.964 3.01 49.814 10.69 73.06 15.27 46.264 37.08 90.238 57.34 134.097"/><path d="m1757.32 28.667c-3.73 107.644-31.68 217.349-60.65 319.611-10.91 38.591-20.99 85.772-41.55 120.24-17.87 29.889-51.31 44.661-72.81 71.343-31.48 39.05-71.36 92.07-81.44 144.632-14.02 72.603 32.62 153.679 60.56 214.83"/><path d="m1730.84 35.1952c-3.64 107.5298-37.71 216.4328-66.89 318.2368-8.11 28.171-16.21 56.341-24.62 84.283-3.43 11.451-7.27 23.704-14.23 33.324-8.21 11.337-18.9 15.803-30.54 21.299-16.41 7.902-30.74 18.094-43.62 32.065-35.11 38.247-76.66 94.131-90.68 147.38-19.84 75.694 23.79 158.489 53.18 223.419"/><path d="m1703 37.714c-2.29 108.904-42.38 218.609-71.77 321.558-7.59 26.567-13.71 53.478-20.88 80.16-2.81 10.421-6.23 23.018-13.19 31.263-8.52 10.077-19.43 10.764-30.95 13.741-17.77 4.466-32.83 13.284-46.54 26.568-23.68 23.017-43.41 53.02-62.42 80.618-14.96 21.758-29.19 44.776-37.29 70.77-24.31 77.412 16.62 161.352 47.26 228.801"/><path d="m1674.23 36.7976c0 113.0264-45.08 225.4794-74.89 332.3224-7.58 27.254-9.97 75.694-30.12 96.765-9.76 10.192-22.02 9.39-34.48 11.337-18.49 2.748-34.39 10.535-49.03 23.361-24.83 21.529-44.66 51.989-63.88 79.473-16.31 23.247-32.09 47.753-41.44 75.58-26.07 77.87 11.42 162.038 41.75 231.205"/><path d="m1646.91 38.0577c1.66 112.3393-44.45 223.4183-74.78 329.0013-7.69 26.911-10.39 74.893-31.68 94.818-10.49 9.848-24.1 8.36-36.98 9.734-19.01 2.061-35.73 8.818-51.41 20.956-26.08 20.269-45.6 51.417-65.13 78.786-16.83 23.705-33.34 48.44-43.73 76.496-28.98 78.214 5.4 163.184 35.01 234.412"/><path d="m1620.84 41.3783c2.91 109.7047-43.41 218.2657-74.58 320.5267-8.41 27.598-11.32 77.87-35 97.109-11.22 9.161-25.55 7.1-38.74 8.245-19.11 1.718-36.46 7.672-52.77 19.124-26.79 18.895-45.8 50.043-65.54 77.068-17.24 23.59-34.48 47.982-46.01 75.695-33.03 78.671-1.77 164.558 27.32 238.534"/><path d="m1595.81 46.6463c3.74 108.2167-43.73 214.0287-76.03 313.8847-8.83 27.484-12.15 76.725-36.36 95.277-11.73 9.047-26.69 7.1-40.3 8.245-19.52 1.603-37.49 7.1-54.32 18.208-27.52 18.093-46.43 49.356-66.58 76.152-17.76 23.59-35.73 47.867-48.4 75.351-35.94 78.099-7.9 163.756 20.36 239.221"/><path d="m1571.5 53.6315c4.16 106.3845-44.25 208.7605-77.9 305.9835-9.45 27.369-13.29 75.351-37.6 93.673-12.15 9.162-27.52 7.558-41.44 8.818-19.74 1.718-38.23 6.985-55.57 17.75-28.05 17.406-46.85 48.554-67.52 75.122-18.28 23.475-36.97 47.294-50.79 74.434-38.95 76.954-14.12 162.153 13.19 238.649"/><path d="m1547.72 62.2202c4.57 104.3228-45.08 202.6908-80.29 296.7078-10.18 27.14-14.65 73.862-38.54 92.185-12.36 9.504-28.04 8.474-42.37 10.077-19.95 2.176-38.75 7.329-56.51 17.979-28.35 16.948-47.15 47.752-68.34 73.976-18.8 23.247-38.33 46.493-53.18 73.175-42.07 75.351-20.26 159.748 6.02 237.16"/><path d="m1524.04 72.0684c4.78 102.0326-45.91 195.9346-82.68 286.2866-11.01 27.026-16 72.145-39.37 90.925-12.36 9.963-28.25 9.734-42.9 11.795-20.04 2.749-39.05 8.131-57.02 18.666-28.46 16.719-47.36 47.066-69.07 72.717-19.32 22.903-39.57 45.463-55.57 71.457-45.08 73.404-26.38 156.657-1.14 234.756"/><path d="m1500.46 82.9469c5.09 99.8571-46.85 188.4911-85.07 275.0651-11.84 26.796-17.35 70.312-39.99 89.779-12.26 10.535-28.25 11.337-43.11 14.085-20.15 3.55-39.26 9.162-57.43 19.697-28.46 16.49-47.47 46.378-69.7 71.343-19.94 22.445-40.92 44.202-57.96 69.51-48.09 71.114-32.51 152.878-8.41 231.549"/><path d="m1476.47 94.7427c5.5 97.4523-47.37 180.5903-87.25 263.1553-12.88 26.682-18.49 68.48-40.3 88.749-12.05 11.222-28.05 13.284-43.01 16.719-20.04 4.581-39.26 10.65-57.44 21.3-28.25 16.604-47.46 45.691-70.31 69.968-20.47 21.873-42.17 42.829-60.35 67.106-51 68.365-38.64 148.411-15.48 227.655"/><path d="m1452.05 107.225c6.03 95.047-47.67 172.344-89.01 250.558-14.02 26.567-19.53 66.533-40.3 87.833-25.03 25.651-70.11 25.079-100.03 42.943-27.94 16.719-47.46 45.119-70.73 68.48-21.09 21.185-43.52 41.11-62.74 64.471-53.9 65.503-44.66 143.488-22.64 223.075"/><path d="m1426.71 120.051c6.75 92.642-47.57 163.756-90.26 237.618-10.91 18.895-18.28 37.217-25.03 58.173-3.43 10.65-7.79 20.842-15.06 28.973-24.1 27.598-69.39 30.117-99.2 48.554-27.52 16.948-47.36 44.546-71.04 67.106-21.61 20.498-44.77 39.393-65.02 61.609-56.72 62.296-50.69 138.105-29.61 218.036"/><path d="m1400.43 133.105c7.69 90.352-46.84 155.053-90.67 224.564-11.43 18.207-18.91 35.385-25.14 56.226-3.22 10.994-7.48 21.529-14.33 30.461-23.17 29.66-68.14 35.614-98.05 54.738-27.01 17.292-47.16 43.974-71.36 65.503-22.23 19.811-46.02 37.561-67.2 58.631-59.314 58.861-56.509 132.265-36.359 212.654"/><path d="m1372.7 146.16c9.04 89.321-46.74 147.266-91.71 213.455-12.05 17.636-18.18 33.095-23.89 53.822-2.81 10.307-6.44 20.498-12.36 29.202-21.82 32.751-67 42.141-97.33 62.525-26.69 17.864-47.57 44.088-72.39 64.815-23.06 19.238-47.78 36.072-70.12 56.227-60.654 54.852-60.239 126.195-41.335 205.439"/><path d="m1343.51 158.986c10.7 87.26-44.56 138.219-90.05 200.171-12.57 17.063-18.28 31.263-23.37 52.219-2.6 10.765-6.02 21.415-11.53 30.69-20.67 35.042-64.92 47.982-95.56 69.511-26.07 18.322-47.15 43.515-72.5 63.326-23.58 18.437-48.92 34.126-72.186 53.021-62.944 51.302-65.749 120.011-47.78 199.828"/><path d="m1312.46 171.353c12.77 85.428-41.24 129.172-87.15 187.346-12.98 16.49-18.07 29.774-22.43 50.73-2.39 11.223-5.51 22.216-10.7 32.293-19.53 37.447-62.53 53.708-93.59 76.725-25.44 18.895-46.84 43.058-72.5 61.838-24.2 17.635-50.061 32.064-74.263 49.814-21.604 15.803-41.547 34.698-52.868 60.922-17.969 41.912-10.283 89.78-1.039 133.066"/><path d="m1279.22 183.148c15.37 83.71-36.88 120.24-82.68 174.864-21.09 25.193-17.87 54.165-31.06 83.137-18.17 39.737-59.93 59.548-91.4 84.054-24.83 19.353-46.33 42.6-72.4 60.35-24.718 16.833-51.205 30.117-76.133 46.607-22.228 14.658-43.313 32.179-55.673 57.83-19.527 40.424-12.672 87.833-4.051 130.547"/><path d="m1243.7 193.913c8.51 38.019 6.54 69.625-16.42 100.887-17.45 23.705-40.92 40.424-60.13 62.296-21.4 24.392-16.73 54.166-28.57 83.482-16.93 42.027-57.23 65.159-89.12 91.497-24.2 19.926-45.8 42.256-72.082 58.975-25.24 16.032-52.245 28.285-77.901 43.401-22.747 13.513-44.871 29.774-58.477 54.738-21.086 38.935-14.957 85.886-6.96 128.142"/><path d="m1205.57 203.76c9.77 35.843 11.22 66.877-11.63 96.88-16.41 21.643-39.05 35.499-56.92 55.31-21.08 23.361-15.27 54.967-25.55 83.94-15.68 44.202-54.43 70.541-86.83 98.711-23.58 20.498-45.186 41.798-71.776 57.601-25.759 15.345-53.284 26.453-79.563 40.424-23.266 12.482-46.429 27.484-60.971 51.761-22.435 37.561-17.138 84.054-9.659 125.851"/><path d="m1164.55 212.12c10.7 32.751 16.62 63.785-5.09 92.643-14.75 19.582-36.15 30.575-52.25 48.439-21.08 23.247-14.12 58.059-23.78 87.49-14.75 45.348-51.52 74.434-83.929 103.979-22.643 20.613-43.936 40.997-70.319 55.769-25.863 14.429-53.388 24.621-79.978 37.217-24.824 11.795-50.168 26.11-66.164 51.074-23.163 36.187-18.488 81.764-11.425 122.76"/><path d="m1120.41 219.106c11.42 29.316 22.33 61.151 2.38 89.207-12.67 17.864-32.71 26.109-46.53 42.256-19.94 23.246-11.94 58.173-20.05 87.489-13.39 48.211-48.92 80.733-82.259 112.568-21.708 20.727-42.586 40.195-68.76 54.166-27.214 14.429-56.297 23.819-84.341 35.957-24.929 10.879-50.584 24.163-66.995 48.44-23.682 34.927-19.631 79.703-13.087 120.126"/><path d="m1066.5 224.832c12.36 25.88 29.08 57.944 12.88 86.573-9.25 16.261-27.01 22.789-37.5 37.446-15.89 22.102-7.17 60.808-13.81 87.948-12.26 49.928-46.537 85.428-80.294 118.981-21.189 21.071-41.963 39.736-68.241 52.906-27.629 13.856-57.024 22.445-85.38 33.896-25.344 10.192-51.622 22.674-68.864 46.493-24.617 33.896-21.293 78.214-15.165 118.408"/><path d="m991.713 228.725c14.027 21.758 37.497 52.448 30.847 81.993-3.11 13.971-14.75 22.216-18.9 35.385-4.469 13.856 1.66 31.72 1.35 46.493-.31 13.971-1.66 27.827-4.68 41.34-11.525 51.875-45.49 90.123-79.455 125.851-44.767 46.951-97.428 61.495-154.14 83.825-25.448 10.078-51.83 22.56-69.488 46.035-24.824 32.981-22.955 76.267-17.658 116.233"/><path d="m929.496 227.236c16.619 21.3 41.755 48.44 44.04 78.672.935 12.138-5.193 22.559-4.881 34.354.415 16.032 8.517 28.629 8.413 45.692 0 14.428-1.35 28.972-4.259 43.057-11.01 54.051-45.182 95.505-79.666 133.639-43.21 47.638-98.675 59.777-154.452 81.649-25.656 10.077-51.934 22.674-69.903 46.035-24.825 32.408-24.409 74.664-19.839 114.515"/><path d="m878.08 221.052c19.216 21.987 43.937 46.378 53.077 76.381 3.428 11.223 1.87 23.247 5.089 34.469 1.974 6.986 6.648 12.139 9.245 18.552 3.739 8.932 3.947 16.719 4.051 27.025.207 15.116-1.143 30.118-3.947 44.89-11.01 56.456-45.495 101.117-80.706 141.884-41.651 48.096-99.713 58.402-154.556 80.275-25.655 10.192-51.934 23.132-70.11 46.493-24.825 31.949-25.552 73.404-21.709 113.255"/><path d="m835.704 210.975c20.982 22.331 45.183 45.692 58.374 75.122 5.09 11.337 6.648 24.048 11.737 35.385 8.414 18.78 15.788 23.59 16.204 45.92.311 15.689-1.039 31.378-3.947 46.723-11.322 59.089-46.429 106.842-82.575 150.243-40.405 48.44-100.441 57.486-154.348 79.588-25.76 10.535-51.831 24.048-70.007 47.409-24.721 31.835-26.487 72.717-23.371 112.568"/><path d="m800.907 197.577c21.917 22.559 45.702 45.691 60.763 74.778 6.128 11.91 9.348 25.308 15.477 37.217 9.763 18.781 16.826 23.705 17.345 46.723.312 16.261-1.038 32.522-4.05 48.439-11.841 61.609-47.987 112.454-85.172 158.374-39.366 48.554-100.752 57.029-153.829 79.817-25.759 11.108-51.518 25.193-69.591 48.898-24.409 31.95-27.214 72.373-24.617 112.453"/><path d="m771.822 181.43c22.02 22.789 45.287 46.035 60.659 75.237 6.751 12.711 10.387 27.025 17.034 39.736 9.764 19.01 16.723 24.85 17.242 47.867.416 16.834-1.142 33.668-4.362 50.043-12.568 64.129-50.064 117.607-88.496 165.932-38.638 48.555-100.752 56.914-152.997 80.848-67.203 30.919-98.571 82.794-94.624 164.1"/><path d="m746.894 163.452c21.605 23.132 44.144 46.722 58.582 76.266 6.751 13.857 10.283 28.973 16.722 42.943 8.725 19.124 15.581 26.797 16.1 49.242.312 17.292-1.35 34.583-4.882 51.417-13.503 66.304-52.557 122.187-92.339 172.459-38.223 48.211-100.44 57.143-151.751 82.795-66.371 33.209-97.22 87.145-94.312 168.107"/><path d="m724.355 144.098c21.086 23.705 42.69 48.211 55.674 78.672 6.543 15.23 9.348 31.606 15.268 46.951 6.129 16.147 12.984 27.713 13.607 45.806.623 20.04-1.454 39.737-5.817 59.204-15.268 66.991-55.361 123.791-95.974 174.75-20.15 25.308-41.235 36.072-69.384 48.554-26.278 11.681-53.18 22.101-78.628 35.958-66.371 36.186-97.324 92.528-95.35 174.749"/><path d="m702.544 124.287c20.151 24.392 40.405 49.699 51.726 80.733 6.025 16.605 8.206 34.125 13.088 51.188 4.674 16.376 10.906 29.545 11.425 47.18.623 20.269-1.869 40.195-6.647 59.777-16.619 68.365-58.478 126.31-100.648 178.071-37.704 46.264-97.532 58.517-146.039 88.176-65.229 39.851-94.935 99.743-93.585 182.079"/><path d="m679.796 104.362c19.32 25.422 37.808 51.417 47.676 83.252 5.609 18.208 7.063 36.989 10.802 55.654 7.79 38.477 11.945 69.167 1.662 108.332-18.073 69.166-61.802 127.684-105.634 179.33-38.223 45.119-96.493 60.12-143.442 92.757-63.775 44.317-92.027 108.102-91.196 191.01"/><path d="m654.453 85.2377c18.489 26.4533 35.523 53.4783 44.04 85.8863 5.194 19.811 6.232 40.08 9.037 60.349 5.297 38.706 9.659 70.312-1.247 108.789-19.631 69.282-65.333 127.455-110.827 178.185-39.158 43.745-95.351 62.296-140.326 98.254-62.113 49.585-88.599 117.95-87.872 201.89"/><path d="m624.746 67.6025c32.303 49.6995 43.936 94.4745 49.753 153.9075 3.739 38.477 7.998 70.542-3.74 108.217-21.396 68.48-69.072 125.623-116.228 174.177-40.716 41.913-94 64.93-136.69 104.667-59.932 55.768-84.549 129.058-83.925 214.601"/><path d="m589.017 51.9139c31.991 51.5321 44.455 100.5441 49.753 161.5801 3.323 37.905 7.27 69.74-5.505 106.385-23.267 66.647-72.916 121.843-121.63 166.962-42.69 39.622-92.546 68.48-132.432 112.11-57.335 62.64-79.874 141.426-79.043 229.488"/><path d="m550.169 43.7838c33.342 52.7913 41.755 100.8872 45.183 163.4122 2.077 38.248 7.998 70.427-4.051 107.759-20.774 64.243-68.034 118.065-116.852 158.03-46.325 37.79-94.727 71.916-133.47 119.783-55.05 68.136-75.408 151.847-75.2 241.855"/><path d="m511.53 55.5782c17.138 28.5142 29.498 57.0288 29.81 91.8408.208 24.277-5.505 47.638-7.583 71.572-3.116 34.469 4.778 67.22-1.765 101.918-12.049 63.327-50.272 116.347-97.532 153.106-48.611 37.79-98.156 72.717-136.171 124.478-51.207 69.625-67.307 154.824-67.618 242.886"/><path d="m470.709 81.0007c15.684 30.1173 22.851 58.0593 13.502 92.0703-6.128 22.445-17.553 42.485-25.136 64.242-11.737 33.668-.311 68.824-1.142 103.98-1.454 60.235-26.071 110.163-70.423 145.205-47.571 37.561-96.285 68.709-132.639 120.927-48.507 69.625-60.036 155.97-60.036 241.627"/><path d="m426.359 112.378c28.668 69.052-22.747 101.575-53.076 154.137-17.866 30.919-3.324 61.723 3.012 94.933 11.217 57.715 4.985 106.727-39.989 144.059-46.222 38.363-95.871 65.274-130.043 119.21-42.898 67.793-48.714 152.534-48.091 232.809"/><path d="m377.334 142.152c22.435 72.144-50.272 103.407-89.223 146.35-14.957 16.49-18.073 27.369-12.049 49.241 4.674 16.834 11.945 32.866 18.489 48.898 21.189 51.532 35.523 99.284-10.075 140.052-43.209 38.591-93.17 59.433-125.057 113.026-39.366 66.189-39.99 150.93-38.743 227.197"/><path d="m322.283 162.65c9.868 38.935-7.167 60.578-35.211 83.481-24.824 20.269-52.765 35.5-76.966 56.57-7.998 6.986-18.281 14.658-22.124 25.537-3.947 11.452.935 20.956 5.401 31.95 6.544 15.803 15.061 30.461 23.786 44.775 27.94 45.692 65.437 94.246 16.826 140.395-41.443 39.508-93.065 55.769-122.564 110.507-34.8996 64.586-30.8487 148.869-29.3945 221.128"/><path d="m260.169 166.2c6.44 22.559 7.375 31.606-4.051 50.73-8.517 14.314-21.604 24.506-34.276 34.011-27.11 20.383-57.647 35.499-83.614 57.715-21.708 18.552-28.875 31.263-15.892 59.777 7.583 16.605 17.97 31.606 28.772 45.691 31.68 41.226 89.95 92.299 37.288 142.915-41.547 39.851-95.5581 54.394-123.187 111.423-31.2643 64.472-23.7858 149.213-22.6433 219.525"/></g></svg>