<svg width="1874" height="927" viewBox="0 0 1874 927" fill="none" xmlns="http://www.w3.org/2000/svg">
<path d="M183.352 151.274C242.225 175.996 297.386 180.116 356.058 152.075C401.792 130.101 439.703 93.3616 483.531 67.6099C517.932 47.4664 544.911 47.4663 580.716 62.6885C607.795 74.2481 632.869 90.3858 656.137 109.957C692.343 140.516 723.935 177.14 765.357 199.23C832.754 235.282 911.485 236.77 984.398 233.565C1106.56 228.3 1224.9 201.061 1337.43 146.353C1409.84 111.102 1480.05 64.2908 1558.48 48.6109C1608.33 38.6536 1657.97 48.6109 1706.81 31.3286C1752.55 15.0765 1805.7 -19.8314 1850.23 18.8534C1855.75 123.005 1880.02 221.548 1858.16 326.042C1845.82 385.214 1816.13 435.001 1796.28 490.739C1776.82 545.561 1764.78 603.13 1751.24 660.013C1743.12 694.12 1726.37 734.407 1751.54 763.706C1765.08 779.501 1781.53 791.976 1795.37 807.427C1826.56 842.221 1850.73 883.423 1873 925.999C1674.02 919.361 1475.44 904.826 1277.36 881.706C1074.26 858.129 871.467 822.191 667.37 812.12C441.207 800.903 220.361 837.757 2.32214 905.741C2.22185 834.896 -6.20282 749.4 20.7762 682.903C46.2508 620.184 102.516 605.419 145.14 563.416C202.207 507.105 130.698 455.487 96.7988 413.026C73.7312 384.184 47.1534 343.897 74.2327 309.103C95.2944 282.093 127.689 265.841 152.963 244.438C166.403 232.993 181.547 220.06 188.166 201.976C195.688 181.032 192.379 172.333 183.352 151.274Z" stroke="#D1E4E8" stroke-miterlimit="10"/>
<path d="M2.12018 882.166C128.791 844.397 253.958 812.35 384.54 798.845C478.615 789.116 573.092 786.255 667.469 789.46C869.36 796.212 1070.75 832.265 1271.24 856.986C1467.01 881.136 1663.59 896.243 1860.46 902.538" stroke="#D1E4E8" stroke-miterlimit="10"/>
<path d="M2.12018 859.962C72.4261 840.047 142.23 817.271 213.439 801.591C269.904 789.116 327.473 783.965 384.741 778.93C477.913 770.689 571.287 767.255 664.66 768.972C864.746 772.52 1065.53 807.657 1264.02 833.523C1458.18 858.817 1653.36 875.298 1848.73 881.593" stroke="#D1E4E8" stroke-miterlimit="10"/>
<path d="M2.12018 839.246C73.6296 820.018 144.136 795.297 216.348 779.502C273.214 767.027 331.384 764.28 389.053 760.274C480.722 753.865 572.49 750.317 664.359 750.775C861.035 751.805 1059.52 784.767 1254.39 811.32C1447.85 837.758 1642.32 856.414 1837.19 863.281" stroke="#D1E4E8" stroke-miterlimit="10"/>
<path d="M2.32214 819.674C75.3359 801.133 146.645 774.351 220.16 758.328C275.923 746.196 332.99 745.967 389.556 743.106C481.626 738.528 573.695 734.98 665.865 734.522C859.131 733.492 1054.9 763.364 1246.26 790.375C1438.83 817.614 1632.4 839.36 1826.36 846.914" stroke="#D1E4E8" stroke-miterlimit="10"/>
<path d="M2.72406 801.248C75.3367 783.965 145.643 756.268 218.356 739.672C276.827 726.282 336.903 728.685 396.277 726.968C488.547 724.336 580.717 721.246 672.987 720.101C863.445 717.698 1057.01 744.136 1245.46 771.719C1434.82 799.531 1625.07 824.138 1816.03 832.722" stroke="#D1E4E8" stroke-miterlimit="10"/>
<path d="M3.32416 783.965C77.7421 767.37 149.251 737.613 223.569 720.788C281.238 707.626 340.211 712.548 398.782 712.319C491.654 711.975 584.526 709.343 677.398 707.512C866.452 703.849 1058.71 726.053 1245.86 754.437C1431.91 782.592 1618.65 810.633 1806.3 820.361" stroke="#D1E4E8" stroke-miterlimit="10"/>
<path d="M4.22833 767.713C80.6521 751.919 153.465 719.872 229.588 702.704C288.26 689.542 348.135 697.325 407.509 698.47C499.378 700.301 591.348 698.47 683.217 696.181C868.96 691.602 1057.41 708.541 1241.25 737.04C1425.89 765.653 1610.73 798.043 1797.08 809.488" stroke="#D1E4E8" stroke-miterlimit="10"/>
<path d="M5.43225 752.377C83.561 737.383 157.377 703.277 234.904 685.88C294.479 672.489 354.855 683.019 415.032 685.766C507.001 690 599.071 688.97 691.04 686.338C874.076 681.187 1059.12 692.518 1240.45 721.131C1422.68 749.973 1604.52 786.941 1788.35 799.988" stroke="#D1E4E8" stroke-miterlimit="10"/>
<path d="M7.03638 738.07C87.3716 723.878 162.692 687.368 242.225 669.628C303.003 656.123 364.282 669.742 425.462 674.092C516.629 680.501 607.896 680.501 699.063 677.754C878.889 672.26 1059.82 677.296 1238.14 705.68C1418.77 734.522 1598.2 776.755 1780.43 791.863" stroke="#D1E4E8" stroke-miterlimit="10"/>
<path d="M9.04254 724.565C91.6845 711.174 168.509 672.032 250.249 654.177C310.626 641.015 370.702 656.924 431.179 662.876C523.349 671.917 615.719 673.062 708.19 670.086C886.913 664.249 1065.44 662.876 1242.86 691.947C1419.77 720.903 1594.69 767.599 1773.01 784.653" stroke="#D1E4E8" stroke-miterlimit="10"/>
<path d="M11.5486 711.861C96.5976 699.386 174.927 657.496 258.873 639.527C320.553 626.365 381.532 645.593 443.012 653.033C535.784 664.249 628.856 666.538 722.029 663.333C896.339 657.267 1069.15 649.599 1242.45 677.983C1417.77 706.596 1589.67 759.13 1766.19 778.357" stroke="#D1E4E8" stroke-miterlimit="10"/>
<path d="M14.6569 699.843C99.405 688.627 177.233 646.623 260.376 627.281C324.765 612.288 385.944 633.576 449.831 643.075C543.706 657.038 638.183 660.701 732.659 657.153C905.967 650.858 1076.27 636.208 1248.97 665.164C1420.57 693.892 1587.56 751.118 1760.17 772.52" stroke="#D1E4E8" stroke-miterlimit="10"/>
<path d="M18.3692 688.513C105.324 678.212 184.857 633.461 270.106 614.004C335.799 598.897 398.081 623.504 462.971 634.606C556.044 650.515 649.919 655.322 743.994 651.774C821.02 648.912 897.845 639.871 974.87 636.437C1067.14 632.317 1159.31 636.78 1250.68 652.003C1420.58 680.387 1584.35 743.45 1754.85 767.256" stroke="#D1E4E8" stroke-miterlimit="10"/>
<path d="M22.6815 677.754C111.341 668.484 191.977 621.444 278.631 601.529C345.727 586.078 408.21 613.547 474.103 626.251C567.477 644.449 661.953 650.4 756.53 646.509C832.653 643.419 908.375 632.088 984.398 627.052C1075.06 621.101 1165.83 624.305 1255.69 639.413C1422.98 667.568 1582.55 736.01 1750.14 761.991" stroke="#D1E4E8" stroke-miterlimit="10"/>
<path d="M27.6979 667.454C118.564 659.099 200.604 609.083 289.264 589.283C357.664 574.061 421.15 604.619 487.946 618.926C580.517 638.726 674.392 645.708 768.467 641.587C844.289 638.268 919.509 624.534 995.03 617.896C1083.19 610.228 1171.35 612.173 1258.9 626.709C1424.59 654.292 1580.54 728.571 1745.93 757.069" stroke="#D1E4E8" stroke-miterlimit="10"/>
<path d="M33.4142 657.725C126.386 650.4 209.63 597.066 300.296 577.609C368.195 563.073 430.176 595.005 495.969 610.685C589.743 633.003 685.123 641.358 780.702 636.895C856.224 633.347 931.043 617.095 1006.26 608.969C1093.82 599.469 1181.58 600.27 1268.63 615.149C1430.71 642.961 1581.15 721.475 1742.62 752.033" stroke="#D1E4E8" stroke-miterlimit="10"/>
<path d="M40.0327 648.225C131.902 642.274 214.443 589.626 303.404 567.995C341.415 558.724 372.807 560.67 409.715 573.488C443.013 585.162 476.611 595.349 510.51 604.047C604.887 627.967 700.968 637.124 797.451 631.63C870.063 627.51 941.974 609.655 1014.09 600.041C1100.54 588.481 1187.39 587.68 1273.65 602.216C1434.32 629.341 1580.84 713.348 1740.21 746.311" stroke="#D1E4E8" stroke-miterlimit="10"/>
<path d="M47.4553 639.184C140.428 634.377 223.671 579.44 313.534 557.465C352.147 547.965 383.439 550.369 420.849 564.332C454.447 576.807 488.447 587.909 522.847 597.18C617.424 622.817 714.007 632.774 810.991 626.365C883.102 621.558 954.211 601.872 1025.62 590.656C1110.87 577.265 1196.62 575.205 1281.87 589.626C1440.33 616.408 1582.15 705.108 1738.61 740.13" stroke="#D1E4E8" stroke-miterlimit="10"/>
<path d="M55.7797 630.371C150.256 626.709 234.503 568.796 325.67 546.821C365.788 537.207 395.675 541.213 434.088 556.206C466.081 568.682 498.376 579.898 531.172 589.397C626.852 617.095 724.839 628.197 823.428 620.757C895.639 615.263 966.547 593.632 1037.96 580.813C1123 565.591 1208.45 562.501 1293.7 577.38C1448.86 604.276 1585.16 696.639 1737.81 733.378" stroke="#D1E4E8" stroke-miterlimit="10"/>
<path d="M65.1044 621.787C160.785 619.383 245.834 558.38 338.204 536.406C379.625 526.563 408.711 532.629 447.524 548.423C479.919 561.585 512.715 573.374 545.912 583.331C640.59 611.715 737.874 623.16 835.561 614.462C908.073 608.053 978.88 584.704 1050.39 570.283C1133.43 553.573 1217.08 549.339 1300.62 563.645C1454.67 589.969 1586.96 686.795 1737.7 725.48" stroke="#D1E4E8" stroke-miterlimit="10"/>
<path d="M75.437 613.318C172.12 612.288 257.771 547.966 351.044 526.334C388.755 517.521 418.04 522.443 453.344 537.665C488.547 552.773 524.452 566.278 560.758 577.494C654.433 606.336 750.815 617.781 847.598 607.595C920.512 599.927 991.419 575.091 1063.13 559.182C1146.17 540.755 1230.02 535.376 1313.86 550.484C1380.06 562.387 1443.04 584.819 1504.42 615.034C1581.55 653.033 1656.47 694.235 1738.61 716.553" stroke="#D1E4E8" stroke-miterlimit="10"/>
<path d="M86.7699 604.848C183.553 605.192 269.204 538.466 362.277 516.606C435.792 499.323 503.189 548.652 572.793 570.627C666.467 600.27 763.15 611.715 859.934 599.583C932.847 590.427 1003.35 564.676 1074.96 547.279C1157.4 527.25 1240.65 520.955 1324.29 535.948C1389.79 547.737 1452.07 570.627 1512.34 601.872C1587.26 640.786 1659.78 683.248 1740.21 706.138" stroke="#D1E4E8" stroke-miterlimit="10"/>
<path d="M99.3067 596.379C196.491 598.211 282.142 528.166 375.516 506.649C446.423 490.283 513.52 540.184 580.416 562.273C676.397 593.862 775.788 605.421 875.078 590.085C947.19 578.868 1016.69 552.659 1087.4 534.232C1168.44 513.173 1250.38 505.619 1332.82 520.269C1398.11 531.829 1460.09 554.833 1519.67 587.109C1592.98 626.824 1663.59 670.773 1742.72 694.35" stroke="#D1E4E8" stroke-miterlimit="10"/>
<path d="M116.656 585.392C212.637 589.741 297.686 517.293 389.956 496.806C428.77 488.222 454.746 498.065 490.651 514.202C524.55 529.425 558.951 543.044 594.054 554.375C688.932 585.048 787.32 596.493 885.106 579.898C958.12 567.537 1028.33 540.984 1100.04 521.642C1181.67 499.553 1264.32 491.427 1347.56 506.191C1410.65 517.407 1470.12 539.725 1527.49 571.543C1599.4 611.487 1668.4 656.123 1745.93 680.959" stroke="#D1E4E8" stroke-miterlimit="10"/>
<path d="M137.117 570.398C227.582 578.067 312.03 509.052 398.483 488.222C436.394 479.066 462.972 487.192 498.175 502.299C532.575 517.064 567.478 530.34 602.881 541.556C697.558 571.428 795.646 584.476 893.432 569.254C966.847 557.923 1037.55 531.942 1109.56 512.943C1190.3 491.541 1272.14 482.156 1354.68 494.745C1420.27 504.703 1480.35 527.135 1539.72 560.098C1608.83 598.439 1675.82 640.443 1749.34 666.996" stroke="#D1E4E8" stroke-miterlimit="10"/>
<path d="M151.96 556.092C192.98 561.127 232.195 545.676 270.507 530.569C317.144 512.142 363.079 489.252 411.621 477.692C448.83 468.879 474.806 476.891 509.608 491.083C543.808 505.046 578.409 517.865 613.512 528.737C707.888 558.037 805.675 572.687 903.26 558.953C977.076 548.538 1048.59 523.473 1121.1 505.16C1201.73 484.788 1283.47 475.288 1365.92 486.734C1430.7 495.775 1489.08 517.063 1547.95 548.767C1615.75 585.162 1681.74 624.992 1752.75 652.918" stroke="#D1E4E8" stroke-miterlimit="10"/>
<path d="M161.889 542.472C202.909 548.767 242.826 533.316 281.339 518.437C328.978 500.125 376.116 477.463 425.561 466.132C462.87 457.663 488.445 466.132 523.648 479.867C557.748 493.143 592.149 505.389 626.951 516.033C721.127 544.761 818.712 561.013 916.098 548.194C989.312 538.58 1060.62 515.118 1132.73 498.179C1214.17 478.951 1296.51 470.024 1379.55 481.126C1441.84 489.481 1497.3 509.281 1554.47 538.237C1621.56 572.229 1687.16 609.541 1756.16 638.611" stroke="#D1E4E8" stroke-miterlimit="10"/>
<path d="M167.205 529.425C208.426 536.75 249.246 521.299 288.26 506.878C337.404 488.794 385.946 466.247 436.694 454.688C504.393 439.351 572.793 482.271 637.683 502.071C731.157 530.569 828.141 549.339 925.024 538.352C998.54 529.997 1070.55 508.137 1143.06 492.571C1224.5 474.946 1306.64 466.591 1389.38 477.12C1521.07 493.945 1637.41 570.628 1759.47 624.42" stroke="#D1E4E8" stroke-miterlimit="10"/>
<path d="M168.509 516.721C210.532 524.961 252.656 509.396 292.573 495.318C343.722 477.235 394.17 454.688 446.824 442.785C484.535 434.201 511.213 440.61 547.218 453.658C580.716 465.675 614.315 477.235 648.214 487.65C740.885 516.149 836.967 537.551 933.349 528.624C1007.17 521.871 1079.88 501.728 1152.79 487.65C1234.13 471.97 1316.17 464.416 1398.51 474.488C1525.98 490.168 1644.73 556.321 1762.78 609.999" stroke="#D1E4E8" stroke-miterlimit="10"/>
<path d="M166.403 504.245C209.229 513.172 252.756 497.721 293.676 483.873C346.932 465.904 399.486 443.471 454.046 430.767C473.402 426.303 494.364 421.611 514.121 424.701C528.564 426.99 542.705 433.857 556.546 438.664C589.542 450.109 622.74 461.326 656.037 471.741C747.505 500.354 842.182 524.846 937.662 519.009C1012.68 514.431 1087 495.89 1161.22 483.415C1241.75 469.795 1322.89 463.271 1404.13 472.656C1528.59 487.077 1650.85 542.129 1766.19 595.463" stroke="#D1E4E8" stroke-miterlimit="10"/>
<path d="M161.287 491.884C205.316 501.269 250.348 485.933 292.672 472.313C348.435 454.344 403.396 432.026 460.162 418.292C499.578 408.792 527.86 410.395 565.671 422.984C600.373 434.658 635.074 446.218 669.876 457.32C759.539 485.704 852.11 512.486 945.884 508.823C1022.01 505.847 1097.63 489.252 1173.15 478.608C1253.28 467.392 1333.92 462.356 1414.46 471.855C1470.32 478.493 1523.58 493.601 1577.73 509.968C1642.83 529.768 1707.31 551.399 1769.7 580.47" stroke="#D1E4E8" stroke-miterlimit="10"/>
<path d="M153.766 479.638C199.3 489.481 246.037 474.144 289.865 460.639C351.847 441.525 413.026 416.804 476.11 402.955C515.024 394.371 544.11 397.462 581.82 409.593C613.513 419.894 645.206 430.424 676.898 440.61C766.762 469.795 859.333 500.354 953.609 498.751C1029.43 497.492 1105.15 483.415 1180.57 474.831C1261.61 465.675 1343.05 462.012 1424.29 471.855C1478.65 478.379 1531.4 492.571 1584.86 505.275C1649.05 520.612 1712.73 537.322 1773.61 565.706" stroke="#D1E4E8" stroke-miterlimit="10"/>
<path d="M144.338 467.277C191.476 477.464 239.918 462.241 285.551 448.851C350.542 429.623 414.629 405.13 480.522 389.908C519.336 380.981 551.931 381.438 589.943 393.341C621.134 403.07 652.225 413.256 683.316 423.557C773.48 453.429 865.75 487.65 960.528 488.336C1036.15 488.909 1111.97 477.235 1187.19 470.825C1267.53 463.958 1348.06 461.669 1428.3 471.169C1483.06 477.692 1536.92 490.854 1591.38 500.354C1654.76 511.341 1717.75 523.015 1777.42 550.827" stroke="#D1E4E8" stroke-miterlimit="10"/>
<path d="M133.505 454.688C186.46 466.018 242.625 447.82 293.774 432.713C357.06 414.057 419.643 391.281 483.63 376.403C523.447 367.132 558.048 364.843 597.163 376.631C629.959 386.474 662.554 397.118 695.049 408.22C782.205 437.749 870.764 473.801 962.433 477.692C1039.16 480.897 1116.68 471.054 1193.31 466.705C1274.55 462.013 1355.88 461.211 1436.82 471.054C1490.68 477.578 1543.73 489.367 1597.59 495.204C1660.28 501.956 1722.66 508.709 1781.43 535.948" stroke="#D1E4E8" stroke-miterlimit="10"/>
<path d="M121.872 441.755C176.131 453.314 233.7 435.574 286.354 420.581C352.147 401.925 417.137 379.493 483.431 363.355C527.46 352.597 565.17 348.591 608.798 361.18C638.686 369.764 668.373 379.378 697.859 389.565C786.518 420.123 875.88 460.639 969.254 466.591C1045.28 471.398 1122.4 464.073 1198.52 461.784C1279.96 459.266 1361.5 459.838 1442.54 469.566C1495.29 475.976 1546.84 486.505 1599.9 488.794C1663.19 491.541 1726.77 493.029 1786.35 520.498" stroke="#D1E4E8" stroke-miterlimit="10"/>
<path d="M109.837 428.478C165.902 440.495 225.075 422.641 279.434 407.877C347.834 389.335 415.432 366.559 484.133 349.62C528.463 338.633 569.584 331.995 614.114 344.127C645.506 352.711 676.597 362.782 707.487 373.541C794.743 404.329 882.099 447.362 974.068 455.031C1050.09 461.326 1127.32 456.404 1203.44 456.061C1284.18 455.717 1365.01 457.549 1445.35 467.048C1499.31 473.457 1551.36 483.071 1605.82 482.156C1668.4 481.126 1731.89 477.921 1791.06 505.161" stroke="#D1E4E8" stroke-miterlimit="10"/>
<path d="M98.0027 414.515C154.969 426.876 215.246 409.479 270.708 394.944C345.528 375.373 419.243 350.765 494.464 333.025C538.793 322.61 578.911 316.43 623.14 328.104C653.73 336.116 683.918 345.73 713.906 356.374C799.858 387.161 884.606 432.141 975.071 442.441C1053.1 451.369 1133.03 447.821 1211.36 449.423C1291.1 451.025 1370.83 454.23 1450.16 463.386C1505.32 469.795 1557.48 478.15 1613.04 474.145C1672.91 469.91 1740.11 460.067 1796.38 489.71" stroke="#D1E4E8" stroke-miterlimit="10"/>
<path d="M86.8699 399.979C145.04 413.026 206.219 395.744 263.186 381.323C340.212 361.866 416.234 337.145 493.561 318.833C538.492 308.189 580.716 299.948 625.948 310.935C656.137 318.26 686.024 327.416 715.511 338.06C802.465 369.306 887.113 417.719 978.481 429.965C1056.61 440.38 1136.84 438.778 1215.27 441.983C1296.01 445.302 1376.65 449.651 1456.98 458.693C1510.14 464.644 1559.88 471.855 1613.34 465.674C1674.02 458.807 1744.52 443.013 1801.99 474.487" stroke="#D1E4E8" stroke-miterlimit="10"/>
<path d="M76.9412 384.643C135.312 398.377 196.892 381.324 254.26 367.589C337.504 347.675 419.344 320.321 502.788 301.665C546.617 291.822 587.837 284.726 631.866 294.683C661.353 301.322 690.438 310.134 719.122 320.435C806.377 351.909 890.423 403.184 982.092 416.346C1059.92 427.562 1139.85 427.905 1218.18 432.598C1299.32 437.405 1380.36 442.784 1461.19 451.254C1515.65 456.976 1566 462.813 1620.56 454.573C1680.14 445.531 1751.75 426.074 1808.41 458.693" stroke="#D1E4E8" stroke-miterlimit="10"/>
<path d="M68.8167 368.276C127.388 382.926 189.57 366.102 247.239 352.825C331.987 333.254 415.331 306.244 500.18 287.016C544.309 277.058 586.834 268.474 631.464 277.402C660.75 283.239 689.534 291.594 717.917 301.551C805.373 332.453 888.316 385.788 979.584 401.239C1060.12 414.858 1143.56 416.003 1224.8 422.069C1305.64 428.135 1386.47 434.201 1467.21 441.869C1521.67 447.019 1571.82 451.597 1626.28 441.755C1685.35 431.111 1758.87 408.449 1815.03 443.014" stroke="#D1E4E8" stroke-miterlimit="10"/>
<path d="M62.9002 350.994C120.469 366.903 182.45 350.422 239.517 337.832C324.867 318.947 408.713 292.738 493.862 272.938C538.192 262.523 582.321 252.68 627.554 260.234C658.344 265.384 688.733 273.51 718.42 283.925C806.779 314.713 889.421 370.336 981.59 386.36C1062.13 400.323 1145.37 402.726 1226.61 409.708C1307.95 416.689 1389.38 423.099 1470.82 429.737C1526.49 434.2 1578.24 437.634 1633.6 426.761C1692.07 415.201 1767.19 390.594 1822.45 427.448" stroke="#D1E4E8" stroke-miterlimit="10"/>
<path d="M60.8941 332.682C123.377 351.452 192.279 332.911 254.26 318.49C333.091 300.063 410.819 276.486 489.549 257.487C536.286 246.156 582.221 236.657 629.86 244.897C658.043 249.819 685.824 257.258 713.104 266.987C803.168 299.033 886.311 357.175 981.089 371.023C1144.97 394.829 1312.16 399.064 1476.94 411.539C1532.2 415.66 1582.05 418.063 1636.81 405.13C1698.89 390.48 1776.62 360.036 1837.2 395.859" stroke="#D1E4E8" stroke-miterlimit="10"/>
<path d="M69.0167 314.598C132.101 334.742 199.699 318.375 262.483 303.038C338.004 284.612 412.222 260.233 487.542 240.777C533.978 228.759 579.01 219.26 626.248 228.416C655.634 234.138 684.419 243.066 712.401 254.396C803.267 291.135 885.407 349.506 983.494 358.891C1149.28 374.8 1315.97 371.366 1482.05 382.239C1506.63 383.842 1531.4 387.504 1555.87 388.076C1587.16 388.763 1618.75 378.691 1648.84 369.764C1711.73 350.879 1789.45 315.056 1853.54 346.301" stroke="#D1E4E8" stroke-miterlimit="10"/>
<path d="M85.7658 296.629C148.851 317.917 214.844 303.382 277.728 287.015C349.338 268.36 419.343 242.951 490.651 222.922C535.884 210.218 578.91 201.062 624.945 211.477C654.03 218.001 682.413 228.073 709.994 240.548C803.768 283.124 885.307 342.067 989.011 348.934C1157.1 360.036 1324.89 340.236 1492.99 345.729C1517.36 346.53 1541.93 349.964 1566.2 350.078C1597.89 350.193 1629.89 338.633 1659.98 328.447C1722.06 307.388 1798.68 268.016 1863.27 297.087" stroke="#D1E4E8" stroke-miterlimit="10"/>
<path d="M108.031 278.661C170.414 300.864 234.1 288.275 296.283 270.649C363.279 251.65 428.47 225.097 495.065 204.267C538.692 190.647 579.211 181.949 623.641 193.623C652.726 201.177 680.909 212.393 708.088 226.242C751.215 248.102 791.432 276.601 834.659 298.232C886.11 323.984 940.77 337.375 996.834 339.892C1167.93 347.675 1335.73 306.358 1506.13 303.726C1530.3 303.382 1554.57 305.786 1578.74 305.557C1610.13 305.099 1641.42 293.539 1671.11 282.781C1730.88 260.921 1804.9 220.061 1867.88 248.789" stroke="#D1E4E8" stroke-miterlimit="10"/>
<path d="M132.605 260.233C255.465 306.357 385.546 224.295 501.485 183.894C543.207 169.358 580.717 162.148 623.142 175.081C650.622 183.436 677.1 194.996 702.674 209.188C747.205 233.909 788.125 266.299 833.457 289.189C887.115 316.315 944.783 328.332 1003.25 330.163C1099.64 333.253 1196.72 318.489 1291.3 298.803C1367.92 282.895 1444.15 263.209 1522.07 257.83C1544.84 256.227 1567.51 256.914 1590.27 256.685C1620.96 256.342 1650.95 245.812 1679.94 234.939C1736.7 213.537 1807.81 171.876 1867.69 201.863" stroke="#D1E4E8" stroke-miterlimit="10"/>
<path d="M156.575 241.12C277.729 288.618 394.17 205.869 506.399 162.606C544.009 148.071 576.705 141.204 615.218 153.679C644.905 163.293 673.388 177.027 700.568 193.737C743.192 220.176 782.307 253.595 826.536 276.715C883.503 306.472 945.685 317.689 1007.97 319.062C1109.26 321.351 1211.06 299.605 1308.75 270.534C1383.27 248.331 1456.98 220.862 1533.81 210.905C1558.08 207.7 1582.15 207.471 1606.52 206.67C1636.41 205.64 1665.19 195.912 1693.37 185.039C1744.52 165.239 1811.52 125.524 1864.98 157.456" stroke="#D1E4E8" stroke-miterlimit="10"/>
<path d="M176.632 220.862C295.881 269.275 398.783 188.357 506.799 140.86C542.804 125.066 572.591 119.343 609.7 132.276C639.387 142.691 667.77 157.57 694.448 175.539C736.371 203.808 774.382 239.289 818.812 262.866C878.888 294.912 945.584 304.641 1011.28 305.213C1117.19 306.243 1222.9 279.003 1322.99 241.12C1396.5 213.308 1468.62 178.286 1545.54 164.437C1598.5 154.938 1649.24 158.371 1700.8 138.571C1748.64 120.144 1811.22 82.2606 1860.26 116.367" stroke="#D1E4E8" stroke-miterlimit="10"/>
<path d="M189.873 199.346C245.536 222.465 296.485 221.32 352.449 199.803C405.605 179.431 452.542 143.379 503.692 117.856C538.193 100.688 565.874 96.11 601.578 109.615C631.165 120.717 659.047 136.397 685.324 155.51C726.244 185.382 762.951 222.236 807.181 245.927C870.165 279.691 941.073 287.359 1009.77 287.016C1120.7 286.329 1230.32 255.999 1333.42 210.333C1406.23 178.058 1477.24 136.855 1554.67 120.259C1605.92 109.272 1656.67 114.537 1706.82 95.5377C1752.05 78.3699 1810.42 42.7754 1855.65 78.7133" stroke="#D1E4E8" stroke-miterlimit="10"/>
<path d="M193.181 176.34C251.953 201.062 306.914 201.52 365.185 174.051C410.718 152.649 450.535 119.458 494.463 94.6216C529.867 74.5925 557.749 72.3035 594.757 87.64C621.636 98.8563 646.91 113.735 670.579 132.047C711.298 163.636 747.003 202.664 792.235 226.356C857.928 260.806 932.847 265.498 1004.06 263.553C1119.19 260.348 1231.52 230.133 1337.53 179.316C1411.05 144.065 1482.26 97.8262 1561.29 80.6585C1610.13 70.1289 1659.07 77.3393 1706.91 59.8282C1752.35 43.3471 1807.11 8.55376 1851.74 46.094" stroke="#D1E4E8" stroke-miterlimit="10"/>
<path d="M1829.87 6.03583C1835.09 109.043 1851.94 210.218 1831.58 312.767C1819.84 371.824 1792.46 422.755 1771.5 477.578C1750.54 532.629 1734.49 589.855 1716.94 646.394C1706.61 679.814 1684.55 723.306 1705.01 756.841C1715.64 774.237 1730.68 788.658 1742.92 804.567C1771.1 841.192 1794.27 881.822 1815.73 923.826" stroke="#D1E4E8" stroke-miterlimit="10"/>
<path d="M1809.31 1C1813.52 104.693 1823.05 208.73 1801.99 311.05C1790.26 367.933 1765.38 418.75 1744.32 471.397C1723.16 524.16 1703.8 577.723 1683.85 631.058C1671.31 664.592 1644.93 710.03 1659.47 747.57C1666.9 766.683 1680.64 783.279 1691.47 799.874C1716.94 838.674 1739.41 879.304 1760.37 921.537" stroke="#D1E4E8" stroke-miterlimit="10"/>
<path d="M1788.35 2.14548C1790.96 105.038 1792.87 209.418 1771.7 310.25C1759.87 366.789 1736.9 418.865 1714.84 470.941C1694.38 519.125 1672.51 566.508 1651.55 614.463C1636.41 649.028 1607.02 694.694 1615.04 735.782C1619.26 757.414 1631.89 776.985 1642.12 795.297C1664.69 835.813 1686.35 876.673 1706.71 918.676" stroke="#D1E4E8" stroke-miterlimit="10"/>
<path d="M1766.79 7.86672C1767.59 111.446 1761.97 217.428 1739.21 318.031C1727.27 370.794 1707.41 422.068 1685.55 470.596C1665.89 514.317 1641.42 554.718 1619.86 597.18C1601.4 633.461 1569.51 679.7 1572.12 724.221C1573.52 747.455 1584.05 769.087 1593.38 789.23C1613.14 831.692 1634.6 873.238 1654.46 915.699" stroke="#D1E4E8" stroke-miterlimit="10"/>
<path d="M1744.52 16.2217C1743.02 168.443 1721.56 336.573 1656.16 471.626C1637.41 510.311 1610.53 542.815 1588.97 579.44C1566.8 617.209 1532.8 664.592 1530.6 712.09C1529.39 736.697 1537.72 760.503 1546.34 782.706C1563.49 826.999 1584.65 869.461 1604.21 912.38" stroke="#D1E4E8" stroke-miterlimit="10"/>
<path d="M1721.26 25.7216C1718.55 132.276 1698.39 241.463 1671.61 343.326C1660.38 386.016 1647.54 433.171 1627.38 471.97C1609.43 506.534 1579.64 530.569 1558.28 562.158C1532 601.072 1495.4 651.087 1489.48 701.675C1486.57 726.625 1492.39 751.461 1499.81 774.695C1514.55 820.934 1535.61 864.883 1555.17 908.718" stroke="#D1E4E8" stroke-miterlimit="10"/>
<path d="M1696.89 34.6485C1693.27 142.233 1666.3 251.878 1638.31 354.084C1627.78 392.654 1618.05 439.808 1598.2 474.258C1580.95 504.13 1548.65 518.895 1527.89 545.562C1497.5 584.59 1458.99 637.581 1449.26 690.115C1435.72 762.677 1480.75 843.709 1507.73 904.827" stroke="#D1E4E8" stroke-miterlimit="10"/>
<path d="M1671.31 41.1731C1667.8 148.643 1634.9 257.487 1606.72 359.235C1598.9 387.39 1591.07 415.545 1582.95 443.472C1579.64 454.917 1575.93 467.163 1569.21 476.777C1561.29 488.108 1550.96 492.572 1539.72 498.065C1523.88 505.962 1510.04 516.149 1497.6 530.112C1463.7 568.339 1423.58 624.191 1410.04 677.411C1390.89 753.064 1433.01 835.813 1461.39 900.707" stroke="#D1E4E8" stroke-miterlimit="10"/>
<path d="M1644.43 43.6906C1642.22 152.534 1603.51 262.179 1575.13 365.072C1567.81 391.624 1561.89 418.521 1554.97 445.188C1552.26 455.603 1548.95 468.193 1542.23 476.433C1534.01 486.505 1523.48 487.192 1512.34 490.168C1495.19 494.631 1480.65 503.444 1467.41 516.72C1444.54 539.725 1425.49 569.712 1407.13 597.295C1392.69 619.04 1378.95 642.045 1371.13 668.026C1347.66 745.395 1387.18 829.289 1416.76 896.701" stroke="#D1E4E8" stroke-miterlimit="10"/>
<path d="M1616.65 42.7747C1616.65 155.739 1573.12 268.13 1544.34 374.914C1537.02 402.154 1534.71 450.567 1515.25 471.626C1505.83 481.812 1493.99 481.011 1481.96 482.957C1464.1 485.704 1448.76 493.486 1434.62 506.305C1410.65 527.822 1391.49 558.266 1372.94 585.735C1357.19 608.968 1341.95 633.461 1332.92 661.273C1307.75 739.1 1343.95 823.222 1373.24 892.351" stroke="#D1E4E8" stroke-miterlimit="10"/>
<path d="M1590.27 44.0341C1591.88 156.311 1547.35 267.33 1518.06 372.855C1510.64 399.751 1508.03 447.706 1487.47 467.621C1477.34 477.464 1464.2 475.976 1451.77 477.349C1433.41 479.409 1417.27 486.162 1402.12 498.294C1376.95 518.552 1358.09 549.683 1339.24 577.037C1322.99 600.728 1307.04 625.45 1297.01 653.491C1269.03 731.661 1302.23 816.585 1330.81 887.774" stroke="#D1E4E8" stroke-miterlimit="10"/>
<path d="M1565.1 47.3528C1567.91 156.998 1523.18 265.498 1493.09 367.704C1484.96 395.287 1482.16 445.531 1459.29 464.759C1448.46 473.915 1434.62 471.855 1421.88 473C1403.43 474.716 1386.68 480.668 1370.93 492.113C1345.06 510.998 1326.7 542.128 1307.65 569.139C1291 592.716 1274.35 617.095 1263.22 644.792C1231.32 723.42 1261.51 809.259 1289.59 883.195" stroke="#D1E4E8" stroke-miterlimit="10"/>
<path d="M1540.93 52.618C1544.54 160.775 1498.7 266.529 1467.51 366.331C1458.99 393.799 1455.78 443.013 1432.41 461.555C1421.08 470.596 1406.64 468.651 1393.5 469.795C1374.64 471.398 1357.29 476.891 1341.04 487.993C1314.47 506.076 1296.21 537.322 1276.75 564.104C1259.6 587.681 1242.25 611.944 1230.02 639.413C1195.32 717.469 1222.4 803.079 1249.68 878.503" stroke="#D1E4E8" stroke-miterlimit="10"/>
<path d="M1517.46 59.5993C1521.47 165.925 1474.73 268.245 1442.24 365.415C1433.11 392.769 1429.4 440.724 1405.93 459.037C1394.2 468.193 1379.35 466.591 1365.91 467.849C1346.86 469.566 1329.01 474.831 1312.26 485.59C1285.18 502.986 1267.02 534.117 1247.07 560.67C1229.41 584.133 1211.36 607.939 1198.02 635.064C1160.41 711.976 1184.38 797.128 1210.76 873.582" stroke="#D1E4E8" stroke-miterlimit="10"/>
<path d="M1494.49 68.1833C1498.91 172.449 1450.97 270.763 1416.97 364.728C1407.14 391.853 1402.82 438.55 1379.76 456.862C1367.82 466.361 1352.68 465.331 1338.84 466.934C1319.58 469.108 1301.43 474.259 1284.28 484.903C1256.9 501.842 1238.74 532.629 1218.28 558.839C1200.13 582.072 1181.28 605.306 1166.93 631.973C1126.31 707.283 1147.38 791.634 1172.75 869.003" stroke="#D1E4E8" stroke-miterlimit="10"/>
<path d="M1471.63 78.0261C1476.24 180.003 1427.3 273.853 1391.79 364.156C1381.16 391.167 1376.35 436.261 1353.78 455.031C1341.85 464.988 1326.5 464.759 1312.36 466.819C1293 469.566 1274.65 474.945 1257.3 485.475C1229.82 502.185 1211.56 532.515 1190.6 558.152C1171.95 581.042 1152.39 603.589 1136.95 629.57C1093.42 702.934 1111.47 786.14 1135.84 864.196" stroke="#D1E4E8" stroke-miterlimit="10"/>
<path d="M1448.86 88.8986C1453.77 188.701 1403.62 277.286 1366.72 363.812C1355.28 390.594 1349.97 434.086 1328.1 453.542C1316.27 464.072 1300.82 464.873 1286.48 467.62C1267.02 471.168 1248.57 476.776 1231.02 487.306C1203.54 503.787 1185.18 533.659 1163.72 558.609C1144.47 581.042 1124.21 602.788 1107.76 628.082C1061.32 699.156 1076.37 780.875 1099.63 859.503" stroke="#D1E4E8" stroke-miterlimit="10"/>
<path d="M1425.69 100.688C1431.01 198.087 1379.96 281.179 1341.44 363.698C1329.01 390.366 1323.59 432.141 1302.53 452.399C1290.9 463.615 1275.45 465.675 1261.01 469.109C1241.65 473.687 1223.1 479.753 1205.55 490.397C1178.27 506.992 1159.71 536.063 1137.65 560.327C1117.89 582.187 1096.93 603.132 1079.38 627.396C1030.13 695.724 1042.07 775.725 1064.43 854.926" stroke="#D1E4E8" stroke-miterlimit="10"/>
<path d="M1402.12 113.163C1407.94 208.158 1356.09 285.413 1316.17 363.584C1302.63 390.136 1297.31 430.08 1277.25 451.368C1253.08 477.005 1209.56 476.433 1180.67 494.288C1153.69 510.998 1134.84 539.382 1112.37 562.73C1092.01 583.903 1070.35 603.818 1051.79 627.166C999.742 692.633 1008.67 770.574 1029.93 850.119" stroke="#D1E4E8" stroke-miterlimit="10"/>
<path d="M1377.65 125.982C1384.17 218.573 1331.71 289.648 1290.49 363.47C1279.96 382.354 1272.84 400.666 1266.32 421.611C1263.01 432.255 1258.8 442.441 1251.78 450.568C1228.51 478.15 1184.78 480.668 1156 499.095C1129.42 516.034 1110.27 543.617 1087.4 566.164C1066.54 586.651 1044.17 605.535 1024.62 627.739C969.855 690.001 975.672 765.768 996.032 845.656" stroke="#D1E4E8" stroke-miterlimit="10"/>
<path d="M1352.28 139.029C1359.7 229.332 1307.04 293.997 1264.72 363.469C1253.69 381.667 1246.47 398.835 1240.45 419.665C1237.34 430.653 1233.23 441.182 1226.61 450.109C1204.24 479.753 1160.81 485.704 1131.93 504.817C1105.85 522.1 1086.4 548.767 1063.03 570.284C1041.57 590.084 1018.6 607.824 998.138 628.883C940.871 687.712 943.579 761.075 963.036 841.421" stroke="#D1E4E8" stroke-miterlimit="10"/>
<path d="M1325.5 152.077C1334.22 241.349 1280.37 299.262 1236.94 365.415C1225.3 383.041 1219.39 398.492 1213.87 419.207C1211.16 429.508 1207.65 439.694 1201.94 448.393C1180.87 481.126 1137.25 490.511 1107.96 510.883C1082.19 528.738 1062.03 554.947 1038.06 575.663C1015.79 594.891 991.921 611.715 970.358 631.859C911.786 686.681 912.188 757.985 930.441 837.186" stroke="#D1E4E8" stroke-miterlimit="10"/>
<path d="M1297.31 164.895C1307.64 252.108 1254.29 303.039 1210.36 364.957C1198.22 382.011 1192.71 396.203 1187.79 417.147C1185.29 427.906 1181.98 438.55 1176.66 447.821C1156.7 482.843 1113.98 495.776 1084.39 517.293C1059.22 535.605 1038.86 560.785 1014.39 580.585C991.619 599.012 967.148 614.691 944.682 633.576C883.904 684.85 881.196 753.522 898.547 833.295" stroke="#D1E4E8" stroke-miterlimit="10"/>
<path d="M1267.33 177.256C1279.66 262.637 1227.51 306.358 1183.18 364.499C1170.64 380.98 1165.73 394.257 1161.52 415.201C1159.21 426.418 1156.2 437.405 1151.19 447.477C1132.33 484.903 1090.81 501.155 1060.82 524.16C1036.25 543.044 1015.59 567.194 990.817 585.964C967.449 603.589 942.476 618.01 919.107 635.75C898.246 651.545 878.99 670.429 868.058 696.639C850.707 738.528 858.129 786.369 867.055 829.632" stroke="#D1E4E8" stroke-miterlimit="10"/>
<path d="M1235.23 189.044C1250.07 272.709 1199.63 309.219 1155.4 363.812C1135.04 388.992 1138.15 417.948 1125.41 446.904C1107.86 486.619 1067.54 506.419 1037.15 530.912C1013.18 550.254 992.42 573.488 967.246 591.228C943.377 608.053 917.802 621.329 893.731 637.81C872.268 652.46 851.909 669.971 839.974 695.608C821.119 736.01 827.738 783.393 836.062 826.084" stroke="#D1E4E8" stroke-miterlimit="10"/>
<path d="M1200.93 199.803C1209.16 237.801 1207.25 269.39 1185.09 300.636C1168.24 324.327 1145.57 341.037 1127.02 362.897C1106.35 387.276 1110.87 417.033 1099.43 446.333C1083.09 488.337 1044.17 511.456 1013.38 537.78C990.014 557.695 969.153 580.013 943.779 596.723C919.408 612.746 893.331 624.992 868.559 640.1C846.594 653.605 825.232 669.857 812.093 694.808C791.734 733.722 797.651 780.647 805.374 822.88" stroke="#D1E4E8" stroke-miterlimit="10"/>
<path d="M1164.12 209.645C1173.55 245.469 1174.95 276.485 1152.89 306.472C1137.04 328.103 1115.18 341.952 1097.93 361.752C1077.57 385.1 1083.19 416.689 1073.26 445.645C1058.11 489.824 1020.7 516.147 989.411 544.303C966.644 564.79 945.783 586.078 920.108 601.872C895.235 617.209 868.657 628.31 843.283 642.273C820.817 654.749 798.452 669.742 784.411 694.006C762.747 731.546 767.862 778.013 775.083 819.788" stroke="#D1E4E8" stroke-miterlimit="10"/>
<path d="M1124.51 218.001C1134.84 250.734 1140.55 281.751 1119.59 310.592C1105.35 330.164 1084.69 341.151 1069.14 359.006C1048.79 382.239 1055.5 417.033 1046.18 446.447C1031.94 491.77 996.432 520.841 965.14 550.369C943.276 570.971 922.716 591.343 897.241 606.107C872.268 620.528 845.69 630.715 820.015 643.304C796.045 655.093 771.573 669.399 756.128 694.35C733.763 730.517 738.276 776.069 745.096 817.042" stroke="#D1E4E8" stroke-miterlimit="10"/>
<path d="M1081.88 224.983C1092.92 254.282 1103.45 286.1 1084.19 314.141C1071.95 331.995 1052.6 340.236 1039.26 356.374C1020 379.607 1027.73 414.515 1019.9 443.815C1006.96 491.999 972.664 524.503 940.47 556.321C919.508 577.037 899.349 596.494 874.075 610.457C847.798 624.878 819.716 634.263 792.637 646.395C768.566 657.268 743.794 670.544 727.947 694.808C705.08 729.716 708.992 774.466 715.31 814.868" stroke="#D1E4E8" stroke-miterlimit="10"/>
<path d="M1029.83 230.706C1041.77 256.572 1057.91 288.618 1042.27 317.231C1033.34 333.483 1016.19 340.007 1006.06 354.657C990.716 376.746 999.141 415.431 992.722 442.556C980.888 492.457 947.791 527.937 915.195 561.472C894.735 582.531 874.677 601.186 849.302 614.348C822.624 628.197 794.241 636.781 766.861 648.226C742.389 658.412 717.015 670.888 700.366 694.694C676.597 728.571 679.806 772.864 685.723 813.037" stroke="#D1E4E8" stroke-miterlimit="10"/>
<path d="M957.62 234.597C971.16 256.343 993.826 287.016 987.407 316.544C984.399 330.507 973.166 338.748 969.154 351.91C964.841 365.759 970.759 383.613 970.458 398.377C970.157 412.341 968.853 426.189 965.945 439.695C954.812 491.541 922.016 529.768 889.22 565.477C845.993 612.402 795.144 626.938 740.384 649.256C715.812 659.328 690.338 671.803 673.288 695.266C649.317 728.228 651.123 771.491 656.238 811.434" stroke="#D1E4E8" stroke-miterlimit="10"/>
<path d="M897.545 233.108C913.592 254.396 937.863 281.522 940.069 311.737C940.972 323.869 935.054 334.284 935.355 346.072C935.757 362.096 943.579 374.685 943.479 391.739C943.479 406.16 942.175 420.695 939.367 434.773C928.736 488.794 895.739 530.226 862.442 568.338C820.72 615.95 767.163 628.082 713.305 649.942C688.533 660.014 663.158 672.604 645.807 695.952C621.837 728.342 622.238 770.575 626.651 810.404" stroke="#D1E4E8" stroke-miterlimit="10"/>
<path d="M847.898 226.928C866.452 248.903 890.322 273.281 899.148 303.267C902.458 314.483 900.953 326.501 904.063 337.717C905.968 344.699 910.481 349.849 912.989 356.258C916.599 365.186 916.8 372.968 916.9 383.269C917.101 398.377 915.797 413.37 913.089 428.134C902.458 484.559 869.16 529.195 835.161 569.94C794.943 618.01 738.879 628.311 685.924 650.171C661.151 660.357 635.777 673.29 618.226 696.638C594.255 728.571 593.553 770.002 597.264 809.831" stroke="#D1E4E8" stroke-miterlimit="10"/>
<path d="M806.98 216.857C827.24 239.175 850.608 262.523 863.345 291.937C868.26 303.268 869.764 315.972 874.678 327.303C882.802 346.073 889.923 350.88 890.324 373.198C890.625 388.878 889.321 404.558 886.513 419.894C875.581 478.951 841.682 526.678 806.78 570.055C767.765 618.468 709.796 627.51 657.743 649.599C632.87 660.129 607.697 673.634 590.145 696.982C566.275 728.8 564.57 769.659 567.579 809.489" stroke="#D1E4E8" stroke-miterlimit="10"/>
<path d="M773.381 203.466C794.543 226.013 817.51 249.132 832.052 278.203C837.97 290.106 841.079 303.497 846.996 315.4C856.424 334.17 863.244 339.091 863.745 362.096C864.046 378.348 862.742 394.6 859.834 410.509C848.4 472.084 813.498 522.901 777.593 568.796C739.582 617.324 680.308 625.793 629.058 648.569C604.185 659.671 579.312 673.749 561.861 697.44C538.292 729.372 535.584 769.774 538.092 809.832" stroke="#D1E4E8" stroke-miterlimit="10"/>
<path d="M745.296 187.328C766.559 210.104 789.024 233.338 803.868 262.523C810.387 275.227 813.897 289.533 820.316 302.238C829.744 321.237 836.463 327.074 836.965 350.079C837.366 366.903 835.862 383.727 832.752 400.094C820.617 464.187 784.411 517.636 747.302 565.935C709.993 614.462 650.017 622.818 599.57 646.738C534.679 677.64 504.391 729.487 508.202 810.748" stroke="#D1E4E8" stroke-miterlimit="10"/>
<path d="M721.226 169.359C742.087 192.478 763.851 216.055 777.792 245.584C784.311 259.433 787.721 274.54 793.939 288.503C802.364 307.617 808.983 315.285 809.485 337.718C809.785 355 808.181 372.282 804.771 389.107C791.733 455.374 754.022 511.227 715.61 561.471C678.702 609.656 618.626 618.583 569.081 644.22C504.993 677.411 475.206 731.318 478.014 812.235" stroke="#D1E4E8" stroke-miterlimit="10"/>
<path d="M699.463 150.016C719.823 173.708 740.684 198.201 753.22 228.645C759.539 243.867 762.247 260.234 767.964 275.57C773.881 291.708 780.5 303.267 781.102 321.351C781.704 341.38 779.698 361.066 775.486 380.522C760.742 447.477 722.029 504.245 682.814 555.176C663.357 580.47 642.998 591.228 615.818 603.704C590.444 615.378 564.468 625.793 539.896 639.642C475.808 675.808 445.92 732.119 447.826 814.295" stroke="#D1E4E8" stroke-miterlimit="10"/>
<path d="M678.402 130.216C697.859 154.594 717.417 179.888 728.349 210.905C734.166 227.5 736.272 245.011 740.986 262.065C745.499 278.431 751.517 291.593 752.018 309.219C752.62 329.477 750.213 349.391 745.599 368.963C729.552 437.291 689.134 495.203 648.415 546.935C612.008 593.174 554.239 605.42 507.402 635.063C444.417 674.893 415.733 734.751 417.037 817.042" stroke="#D1E4E8" stroke-miterlimit="10"/>
<path d="M656.437 110.302C675.092 135.71 692.944 161.691 702.472 193.508C707.888 211.706 709.292 230.476 712.903 249.132C720.425 287.588 724.436 318.261 714.507 357.404C697.056 426.533 654.833 485.018 612.509 536.635C575.601 581.729 519.336 596.723 474.003 629.341C412.423 673.634 385.143 737.384 385.945 820.247" stroke="#D1E4E8" stroke-miterlimit="10"/>
<path d="M631.966 91.1881C649.819 117.626 666.267 144.637 674.491 177.027C679.506 196.827 680.509 217.085 683.216 237.343C688.331 276.028 692.544 307.617 682.013 346.073C663.057 415.316 618.928 473.457 575 524.16C537.189 567.88 482.93 586.421 439.503 622.359C379.527 671.917 353.952 740.245 354.654 824.138" stroke="#D1E4E8" stroke-miterlimit="10"/>
<path d="M603.281 73.5626C634.473 123.235 645.706 167.985 651.322 227.386C654.933 265.842 659.045 297.888 647.711 335.543C627.051 403.985 581.016 461.097 535.483 509.625C496.168 551.514 444.717 574.519 403.496 614.234C345.627 669.972 321.857 743.221 322.459 828.717" stroke="#D1E4E8" stroke-miterlimit="10"/>
<path d="M568.782 57.8827C599.672 109.386 611.707 158.371 616.822 219.374C620.032 257.258 623.843 289.076 611.507 325.7C589.041 392.311 541.101 447.477 494.063 492.571C452.842 532.171 404.701 561.013 366.189 604.619C310.826 667.225 289.063 745.968 289.865 833.981" stroke="#D1E4E8" stroke-miterlimit="10"/>
<path d="M531.271 49.757C563.465 102.519 571.589 150.589 574.899 213.08C576.905 251.307 582.621 283.468 570.987 320.779C550.929 384.987 505.295 438.779 458.157 478.723C413.426 516.492 366.689 550.599 329.28 598.44C276.124 666.538 256.466 750.203 256.667 840.162" stroke="#D1E4E8" stroke-miterlimit="10"/>
<path d="M493.961 61.5449C510.51 90.0434 522.445 118.542 522.746 153.335C522.946 177.599 517.43 200.947 515.424 224.868C512.415 259.318 520.038 292.051 513.719 326.73C502.085 390.022 465.177 443.013 419.543 479.752C372.606 517.521 324.766 552.429 288.058 604.162C238.614 673.748 223.068 758.901 222.767 846.914" stroke="#D1E4E8" stroke-miterlimit="10"/>
<path d="M454.545 86.9535C469.689 117.054 476.609 144.981 467.583 178.973C461.666 201.405 450.633 221.435 443.312 243.18C431.979 276.829 443.011 311.966 442.209 347.103C440.805 407.304 417.035 457.205 374.21 492.228C328.275 529.768 281.237 560.899 246.135 613.089C199.297 682.676 188.165 768.973 188.165 854.583" stroke="#D1E4E8" stroke-miterlimit="10"/>
<path d="M411.721 118.313C439.403 187.328 389.757 219.832 360.471 272.366C343.221 303.268 357.262 334.055 363.38 367.246C374.212 424.93 368.194 473.915 324.767 511.227C280.136 549.568 232.196 576.464 199.199 630.371C157.778 698.127 152.161 782.821 152.763 863.052" stroke="#D1E4E8" stroke-miterlimit="10"/>
<path d="M364.383 148.071C386.047 220.176 315.841 251.421 278.231 294.34C263.789 310.821 260.78 321.694 266.597 343.555C271.11 360.379 278.131 376.402 284.449 392.426C304.909 443.929 318.749 491.656 274.721 532.4C232.998 570.971 184.757 591.801 153.967 645.365C115.956 711.518 115.354 796.212 116.557 872.437" stroke="#D1E4E8" stroke-miterlimit="10"/>
<path d="M311.227 168.558C320.755 207.471 304.307 229.103 277.228 251.993C253.257 272.251 226.278 287.473 202.91 308.532C195.187 315.514 185.258 323.182 181.547 334.055C177.736 345.5 182.45 355 186.763 365.987C193.081 381.782 201.305 396.431 209.73 410.738C236.709 456.404 272.915 504.932 225.977 551.056C185.96 590.542 136.114 606.794 107.631 661.502C73.9322 726.053 77.8437 810.29 79.2478 882.509" stroke="#D1E4E8" stroke-miterlimit="10"/>
<path d="M251.251 172.106C257.469 194.653 258.371 203.694 247.339 222.808C239.115 237.114 226.478 247.301 214.242 256.8C188.066 277.173 158.579 292.28 133.506 314.484C112.544 333.025 105.624 345.729 118.161 374.228C125.482 390.823 135.512 405.817 145.942 419.894C176.532 461.097 232.797 512.142 181.948 562.73C141.83 602.56 89.6775 617.095 62.9994 674.092C32.8109 738.528 40.0321 823.223 41.1353 893.496" stroke="#D1E4E8" stroke-miterlimit="10"/>
</svg>
